<svg width="130" height="130" viewBox="0 0 130 130" fill="none" xmlns="http://www.w3.org/2000/svg">
<path d="M129.351 3.49556L129.336 0L125.84 0.0147545L125.855 3.51032L129.351 3.49556Z" fill="black"/>
<path d="M129.365 6.99112L129.351 3.49556L125.855 3.51032L125.87 7.00588L129.365 6.99112Z" fill="black"/>
<path d="M129.38 10.4867L129.365 6.99112L125.87 7.00588L125.885 10.5014L129.38 10.4867Z" fill="black"/>
<path d="M129.395 13.9822L129.38 10.4867L125.885 10.5014L125.899 13.997L129.395 13.9822Z" fill="black"/>
<path d="M129.41 17.4778L129.395 13.9822L125.899 13.997L125.914 17.4926L129.41 17.4778Z" fill="black"/>
<path d="M129.424 20.9734L129.41 17.4778L125.914 17.4926L125.929 20.9881L129.424 20.9734Z" fill="black"/>
<path d="M129.439 24.4689L129.424 20.9734L125.929 20.9881L125.944 24.4837L129.439 24.4689Z" fill="black"/>
<path d="M129.469 31.46L129.454 27.9645L125.958 27.9792L125.973 31.4748L129.469 31.46Z" fill="black"/>
<path d="M129.498 38.4512L129.483 34.9556L125.988 34.9704L126.003 38.4659L129.498 38.4512Z" fill="black"/>
<path d="M129.528 45.4423L129.513 41.9467L126.017 41.9615L126.032 45.457L129.528 45.4423Z" fill="black"/>
<path d="M129.572 55.929L129.557 52.4334L126.062 52.4482L126.076 55.9437L129.572 55.929Z" fill="black"/>
<path d="M129.602 62.9201L129.587 59.4245L126.091 59.4393L126.106 62.9348L129.602 62.9201Z" fill="black"/>
<path d="M129.616 66.4156L129.602 62.9201L126.106 62.9348L126.121 66.4304L129.616 66.4156Z" fill="black"/>
<path d="M129.661 76.9023L129.646 73.4068L126.15 73.4215L126.165 76.9171L129.661 76.9023Z" fill="black"/>
<path d="M129.675 80.3979L129.661 76.9023L126.165 76.9171L126.18 80.4127L129.675 80.3979Z" fill="black"/>
<path d="M129.72 90.8846L129.705 87.389L126.209 87.4038L126.224 90.8993L129.72 90.8846Z" fill="black"/>
<path d="M129.734 94.3801L129.72 90.8846L126.224 90.8993L126.239 94.3949L129.734 94.3801Z" fill="black"/>
<path d="M129.749 97.8757L129.734 94.3801L126.239 94.3949L126.254 97.8905L129.749 97.8757Z" fill="black"/>
<path d="M129.764 101.371L129.749 97.8757L126.254 97.8905L126.268 101.386L129.764 101.371Z" fill="black"/>
<path d="M129.793 108.362L129.779 104.867L126.283 104.882L126.298 108.377L129.793 108.362Z" fill="black"/>
<path d="M129.808 111.858L129.793 108.362L126.298 108.377L126.313 111.873L129.808 111.858Z" fill="black"/>
<path d="M129.823 115.354L129.808 111.858L126.313 111.873L126.327 115.368L129.823 115.354Z" fill="black"/>
<path d="M129.838 118.849L129.823 115.354L126.327 115.368L126.342 118.864L129.838 118.849Z" fill="black"/>
<path d="M129.852 122.345L129.838 118.849L126.342 118.864L126.357 122.359L129.852 122.345Z" fill="black"/>
<path d="M129.867 125.84L129.852 122.345L126.357 122.359L126.372 125.855L129.867 125.84Z" fill="black"/>
<path d="M129.882 129.336L129.867 125.84L126.372 125.855L126.386 129.35L129.882 129.336Z" fill="black"/>
<path d="M125.855 3.51032L125.84 0.0147545L122.345 0.0295089L122.36 3.52507L125.855 3.51032Z" fill="black"/>
<path d="M125.944 24.4837L125.929 20.9881L122.433 21.0029L122.448 24.4984L125.944 24.4837Z" fill="black"/>
<path d="M125.988 34.9704L125.973 31.4748L122.478 31.4896L122.492 34.9851L125.988 34.9704Z" fill="black"/>
<path d="M126.032 45.457L126.017 41.9615L122.522 41.9762L122.537 45.4718L126.032 45.457Z" fill="black"/>
<path d="M126.047 48.9526L126.032 45.457L122.537 45.4718L122.551 48.9674L126.047 48.9526Z" fill="black"/>
<path d="M126.091 59.4393L126.076 55.9437L122.581 55.9585L122.596 59.454L126.091 59.4393Z" fill="black"/>
<path d="M126.106 62.9348L126.091 59.4393L122.596 59.454L122.61 62.9496L126.106 62.9348Z" fill="black"/>
<path d="M126.135 69.926L126.121 66.4304L122.625 66.4452L122.64 69.9407L126.135 69.926Z" fill="black"/>
<path d="M126.18 80.4127L126.165 76.9171L122.669 76.9318L122.684 80.4274L126.18 80.4127Z" fill="black"/>
<path d="M126.194 83.9082L126.18 80.4127L122.684 80.4274L122.699 83.923L126.194 83.9082Z" fill="black"/>
<path d="M126.209 87.4038L126.194 83.9082L122.699 83.923L122.714 87.4185L126.209 87.4038Z" fill="black"/>
<path d="M126.239 94.3949L126.224 90.8993L122.728 90.9141L122.743 94.4096L126.239 94.3949Z" fill="black"/>
<path d="M126.298 108.377L126.283 104.882L122.787 104.896L122.802 108.392L126.298 108.377Z" fill="black"/>
<path d="M126.386 129.35L126.372 125.855L122.876 125.87L122.891 129.365L126.386 129.35Z" fill="black"/>
<path d="M122.36 3.52507L122.345 0.0295089L118.849 0.0442634L118.864 3.53982L122.36 3.52507Z" fill="black"/>
<path d="M122.389 10.5162L122.374 7.02063L118.879 7.03538L118.894 10.5309L122.389 10.5162Z" fill="black"/>
<path d="M122.404 14.0118L122.389 10.5162L118.894 10.5309L118.908 14.0265L122.404 14.0118Z" fill="black"/>
<path d="M122.419 17.5073L122.404 14.0118L118.908 14.0265L118.923 17.5221L122.419 17.5073Z" fill="black"/>
<path d="M122.448 24.4984L122.433 21.0029L118.938 21.0176L118.953 24.5132L122.448 24.4984Z" fill="black"/>
<path d="M122.492 34.9851L122.478 31.4896L118.982 31.5043L118.997 34.9999L122.492 34.9851Z" fill="black"/>
<path d="M122.522 41.9762L122.507 38.4807L119.012 38.4954L119.026 41.991L122.522 41.9762Z" fill="black"/>
<path d="M122.551 48.9674L122.537 45.4718L119.041 45.4866L119.056 48.9821L122.551 48.9674Z" fill="black"/>
<path d="M122.596 59.454L122.581 55.9585L119.085 55.9732L119.1 59.4688L122.596 59.454Z" fill="black"/>
<path d="M122.61 62.9496L122.596 59.454L119.1 59.4688L119.115 62.9644L122.61 62.9496Z" fill="black"/>
<path d="M122.64 69.9407L122.625 66.4452L119.13 66.4599L119.144 69.9555L122.64 69.9407Z" fill="black"/>
<path d="M122.684 80.4274L122.669 76.9318L119.174 76.9466L119.189 80.4422L122.684 80.4274Z" fill="black"/>
<path d="M122.699 83.923L122.684 80.4274L119.189 80.4422L119.203 83.9377L122.699 83.923Z" fill="black"/>
<path d="M122.728 90.9141L122.714 87.4185L119.218 87.4333L119.233 90.9288L122.728 90.9141Z" fill="black"/>
<path d="M122.773 101.401L122.758 97.9052L119.262 97.92L119.277 101.416L122.773 101.401Z" fill="black"/>
<path d="M122.802 108.392L122.787 104.896L119.292 104.911L119.307 108.407L122.802 108.392Z" fill="black"/>
<path d="M122.832 115.383L122.817 111.887L119.321 111.902L119.336 115.398L122.832 115.383Z" fill="black"/>
<path d="M122.846 118.879L122.832 115.383L119.336 115.398L119.351 118.893L122.846 118.879Z" fill="black"/>
<path d="M122.861 122.374L122.846 118.879L119.351 118.893L119.366 122.389L122.861 122.374Z" fill="black"/>
<path d="M122.891 129.365L122.876 125.87L119.38 125.884L119.395 129.38L122.891 129.365Z" fill="black"/>
<path d="M118.864 3.53982L118.849 0.0442634L115.354 0.0590178L115.368 3.55458L118.864 3.53982Z" fill="black"/>
<path d="M118.894 10.5309L118.879 7.03538L115.383 7.05014L115.398 10.5457L118.894 10.5309Z" fill="black"/>
<path d="M118.908 14.0265L118.894 10.5309L115.398 10.5457L115.413 14.0413L118.908 14.0265Z" fill="black"/>
<path d="M118.923 17.5221L118.908 14.0265L115.413 14.0413L115.427 17.5368L118.923 17.5221Z" fill="black"/>
<path d="M118.953 24.5132L118.938 21.0176L115.442 21.0324L115.457 24.5279L118.953 24.5132Z" fill="black"/>
<path d="M118.982 31.5043L118.967 28.0088L115.472 28.0235L115.486 31.5191L118.982 31.5043Z" fill="black"/>
<path d="M119.085 55.9732L119.071 52.4777L115.575 52.4924L115.59 55.988L119.085 55.9732Z" fill="black"/>
<path d="M119.115 62.9644L119.1 59.4688L115.605 59.4836L115.619 62.9791L119.115 62.9644Z" fill="black"/>
<path d="M119.159 73.451L119.144 69.9555L115.649 69.9702L115.664 73.4658L119.159 73.451Z" fill="black"/>
<path d="M119.174 76.9466L119.159 73.451L115.664 73.4658L115.678 76.9613L119.174 76.9466Z" fill="black"/>
<path d="M119.248 94.4244L119.233 90.9288L115.737 90.9436L115.752 94.4392L119.248 94.4244Z" fill="black"/>
<path d="M119.307 108.407L119.292 104.911L115.796 104.926L115.811 108.421L119.307 108.407Z" fill="black"/>
<path d="M119.336 115.398L119.321 111.902L115.826 111.917L115.841 115.413L119.336 115.398Z" fill="black"/>
<path d="M119.351 118.893L119.336 115.398L115.841 115.413L115.855 118.908L119.351 118.893Z" fill="black"/>
<path d="M119.366 122.389L119.351 118.893L115.855 118.908L115.87 122.404L119.366 122.389Z" fill="black"/>
<path d="M119.395 129.38L119.38 125.884L115.885 125.899L115.9 129.395L119.395 129.38Z" fill="black"/>
<path d="M115.368 3.55458L115.354 0.0590178L111.858 0.0737723L111.873 3.56933L115.368 3.55458Z" fill="black"/>
<path d="M115.398 10.5457L115.383 7.05014L111.888 7.06489L111.902 10.5605L115.398 10.5457Z" fill="black"/>
<path d="M115.413 14.0413L115.398 10.5457L111.902 10.5605L111.917 14.056L115.413 14.0413Z" fill="black"/>
<path d="M115.427 17.5368L115.413 14.0413L111.917 14.056L111.932 17.5516L115.427 17.5368Z" fill="black"/>
<path d="M115.457 24.5279L115.442 21.0324L111.947 21.0471L111.961 24.5427L115.457 24.5279Z" fill="black"/>
<path d="M115.486 31.5191L115.472 28.0235L111.976 28.0383L111.991 31.5338L115.486 31.5191Z" fill="black"/>
<path d="M115.516 38.5102L115.501 35.0146L112.006 35.0294L112.02 38.5249L115.516 38.5102Z" fill="black"/>
<path d="M115.56 48.9969L115.546 45.5013L112.05 45.5161L112.065 49.0116L115.56 48.9969Z" fill="black"/>
<path d="M115.575 52.4924L115.56 48.9969L112.065 49.0116L112.079 52.5072L115.575 52.4924Z" fill="black"/>
<path d="M115.59 55.988L115.575 52.4924L112.079 52.5072L112.094 56.0027L115.59 55.988Z" fill="black"/>
<path d="M115.619 62.9791L115.605 59.4836L112.109 59.4983L112.124 62.9939L115.619 62.9791Z" fill="black"/>
<path d="M115.664 73.4658L115.649 69.9702L112.153 69.985L112.168 73.4805L115.664 73.4658Z" fill="black"/>
<path d="M115.708 83.9525L115.693 80.4569L112.197 80.4717L112.212 83.9672L115.708 83.9525Z" fill="black"/>
<path d="M115.723 87.448L115.708 83.9525L112.212 83.9672L112.227 87.4628L115.723 87.448Z" fill="black"/>
<path d="M115.752 94.4392L115.737 90.9436L112.242 90.9583L112.257 94.4539L115.752 94.4392Z" fill="black"/>
<path d="M115.767 97.9347L115.752 94.4392L112.257 94.4539L112.271 97.9495L115.767 97.9347Z" fill="black"/>
<path d="M115.782 101.43L115.767 97.9347L112.271 97.9495L112.286 101.445L115.782 101.43Z" fill="black"/>
<path d="M115.811 108.421L115.796 104.926L112.301 104.941L112.316 108.436L115.811 108.421Z" fill="black"/>
<path d="M115.841 115.413L115.826 111.917L112.33 111.932L112.345 115.427L115.841 115.413Z" fill="black"/>
<path d="M115.855 118.908L115.841 115.413L112.345 115.427L112.36 118.923L115.855 118.908Z" fill="black"/>
<path d="M115.87 122.404L115.855 118.908L112.36 118.923L112.375 122.418L115.87 122.404Z" fill="black"/>
<path d="M115.9 129.395L115.885 125.899L112.389 125.914L112.404 129.41L115.9 129.395Z" fill="black"/>
<path d="M111.873 3.56933L111.858 0.0737723L108.363 0.0885267L108.377 3.58409L111.873 3.56933Z" fill="black"/>
<path d="M111.961 24.5427L111.947 21.0471L108.451 21.0619L108.466 24.5575L111.961 24.5427Z" fill="black"/>
<path d="M111.991 31.5338L111.976 28.0383L108.481 28.053L108.495 31.5486L111.991 31.5338Z" fill="black"/>
<path d="M112.02 38.5249L112.006 35.0294L108.51 35.0441L108.525 38.5397L112.02 38.5249Z" fill="black"/>
<path d="M112.035 42.0205L112.02 38.5249L108.525 38.5397L108.54 42.0353L112.035 42.0205Z" fill="black"/>
<path d="M112.05 45.5161L112.035 42.0205L108.54 42.0353L108.554 45.5308L112.05 45.5161Z" fill="black"/>
<path d="M112.065 49.0116L112.05 45.5161L108.554 45.5308L108.569 49.0264L112.065 49.0116Z" fill="black"/>
<path d="M112.094 56.0027L112.079 52.5072L108.584 52.5219L108.599 56.0175L112.094 56.0027Z" fill="black"/>
<path d="M112.124 62.9939L112.109 59.4983L108.613 59.5131L108.628 63.0086L112.124 62.9939Z" fill="black"/>
<path d="M112.183 76.9761L112.168 73.4805L108.672 73.4953L108.687 76.9909L112.183 76.9761Z" fill="black"/>
<path d="M112.197 80.4717L112.183 76.9761L108.687 76.9909L108.702 80.4864L112.197 80.4717Z" fill="black"/>
<path d="M112.242 90.9583L112.227 87.4628L108.731 87.4775L108.746 90.9731L112.242 90.9583Z" fill="black"/>
<path d="M112.257 94.4539L112.242 90.9583L108.746 90.9731L108.761 94.4687L112.257 94.4539Z" fill="black"/>
<path d="M112.286 101.445L112.271 97.9495L108.776 97.9642L108.79 101.46L112.286 101.445Z" fill="black"/>
<path d="M112.316 108.436L112.301 104.941L108.805 104.955L108.82 108.451L112.316 108.436Z" fill="black"/>
<path d="M112.404 129.41L112.389 125.914L108.894 125.929L108.908 129.424L112.404 129.41Z" fill="black"/>
<path d="M108.377 3.58409L108.363 0.0885267L104.867 0.103281L104.882 3.59884L108.377 3.58409Z" fill="black"/>
<path d="M108.392 7.07965L108.377 3.58409L104.882 3.59884L104.897 7.0944L108.392 7.07965Z" fill="black"/>
<path d="M108.407 10.5752L108.392 7.07965L104.897 7.0944L104.911 10.59L108.407 10.5752Z" fill="black"/>
<path d="M108.422 14.0708L108.407 10.5752L104.911 10.59L104.926 14.0855L108.422 14.0708Z" fill="black"/>
<path d="M108.436 17.5663L108.422 14.0708L104.926 14.0855L104.941 17.5811L108.436 17.5663Z" fill="black"/>
<path d="M108.451 21.0619L108.436 17.5663L104.941 17.5811L104.956 21.0766L108.451 21.0619Z" fill="black"/>
<path d="M108.466 24.5575L108.451 21.0619L104.956 21.0766L104.97 24.5722L108.466 24.5575Z" fill="black"/>
<path d="M108.495 31.5486L108.481 28.053L104.985 28.0678L105 31.5633L108.495 31.5486Z" fill="black"/>
<path d="M108.525 38.5397L108.51 35.0441L105.015 35.0589L105.029 38.5544L108.525 38.5397Z" fill="black"/>
<path d="M108.554 45.5308L108.54 42.0353L105.044 42.05L105.059 45.5456L108.554 45.5308Z" fill="black"/>
<path d="M108.584 52.5219L108.569 49.0264L105.074 49.0411L105.088 52.5367L108.584 52.5219Z" fill="black"/>
<path d="M108.613 59.5131L108.599 56.0175L105.103 56.0323L105.118 59.5278L108.613 59.5131Z" fill="black"/>
<path d="M108.643 66.5042L108.628 63.0086L105.133 63.0234L105.147 66.5189L108.643 66.5042Z" fill="black"/>
<path d="M108.672 73.4953L108.658 69.9997L105.162 70.0145L105.177 73.5101L108.672 73.4953Z" fill="black"/>
<path d="M108.702 80.4864L108.687 76.9909L105.192 77.0056L105.206 80.5012L108.702 80.4864Z" fill="black"/>
<path d="M108.731 87.4775L108.717 83.982L105.221 83.9967L105.236 87.4923L108.731 87.4775Z" fill="black"/>
<path d="M108.761 94.4687L108.746 90.9731L105.251 90.9879L105.265 94.4834L108.761 94.4687Z" fill="black"/>
<path d="M108.79 101.46L108.776 97.9642L105.28 97.979L105.295 101.475L108.79 101.46Z" fill="black"/>
<path d="M108.82 108.451L108.805 104.955L105.31 104.97L105.324 108.466L108.82 108.451Z" fill="black"/>
<path d="M108.835 111.946L108.82 108.451L105.324 108.466L105.339 111.961L108.835 111.946Z" fill="black"/>
<path d="M108.849 115.442L108.835 111.946L105.339 111.961L105.354 115.457L108.849 115.442Z" fill="black"/>
<path d="M108.864 118.938L108.849 115.442L105.354 115.457L105.369 118.952L108.864 118.938Z" fill="black"/>
<path d="M108.879 122.433L108.864 118.938L105.369 118.952L105.383 122.448L108.879 122.433Z" fill="black"/>
<path d="M108.894 125.929L108.879 122.433L105.383 122.448L105.398 125.943L108.894 125.929Z" fill="black"/>
<path d="M108.908 129.424L108.894 125.929L105.398 125.943L105.413 129.439L108.908 129.424Z" fill="black"/>
<path d="M105 31.5633L104.985 28.0678L101.489 28.0825L101.504 31.5781L105 31.5633Z" fill="black"/>
<path d="M105.029 38.5544L105.015 35.0589L101.519 35.0736L101.534 38.5692L105.029 38.5544Z" fill="black"/>
<path d="M105.059 45.5456L105.044 42.05L101.549 42.0648L101.563 45.5603L105.059 45.5456Z" fill="black"/>
<path d="M105.074 49.0411L105.059 45.5456L101.563 45.5603L101.578 49.0559L105.074 49.0411Z" fill="black"/>
<path d="M105.118 59.5278L105.103 56.0323L101.608 56.047L101.622 59.5426L105.118 59.5278Z" fill="black"/>
<path d="M105.177 73.5101L105.162 70.0145L101.667 70.0292L101.681 73.5248L105.177 73.5101Z" fill="black"/>
<path d="M105.192 77.0056L105.177 73.5101L101.681 73.5248L101.696 77.0204L105.192 77.0056Z" fill="black"/>
<path d="M105.265 94.4834L105.251 90.9879L101.755 91.0026L101.77 94.4982L105.265 94.4834Z" fill="black"/>
<path d="M105.28 97.979L105.265 94.4834L101.77 94.4982L101.785 97.9937L105.28 97.979Z" fill="black"/>
<path d="M105.295 101.475L105.28 97.979L101.785 97.9937L101.799 101.489L105.295 101.475Z" fill="black"/>
<path d="M101.386 3.6136L101.371 0.118036L97.8759 0.13279L97.8906 3.62835L101.386 3.6136Z" fill="black"/>
<path d="M101.401 7.10916L101.386 3.6136L97.8906 3.62835L97.9054 7.12391L101.401 7.10916Z" fill="black"/>
<path d="M101.416 10.6047L101.401 7.10916L97.9054 7.12391L97.9202 10.6195L101.416 10.6047Z" fill="black"/>
<path d="M101.445 17.5958L101.43 14.1003L97.9349 14.115L97.9497 17.6106L101.445 17.5958Z" fill="black"/>
<path d="M101.475 24.587L101.46 21.0914L97.9644 21.1062L97.9792 24.6017L101.475 24.587Z" fill="black"/>
<path d="M101.504 31.5781L101.489 28.0825L97.9939 28.0973L98.0087 31.5928L101.504 31.5781Z" fill="black"/>
<path d="M101.534 38.5692L101.519 35.0736L98.0234 35.0884L98.0382 38.584L101.534 38.5692Z" fill="black"/>
<path d="M101.593 52.5514L101.578 49.0559L98.0825 49.0706L98.0972 52.5662L101.593 52.5514Z" fill="black"/>
<path d="M101.622 59.5426L101.608 56.047L98.112 56.0618L98.1267 59.5573L101.622 59.5426Z" fill="black"/>
<path d="M101.637 63.0381L101.622 59.5426L98.1267 59.5573L98.1415 63.0529L101.637 63.0381Z" fill="black"/>
<path d="M101.667 70.0292L101.652 66.5337L98.1562 66.5484L98.171 70.044L101.667 70.0292Z" fill="black"/>
<path d="M101.681 73.5248L101.667 70.0292L98.171 70.044L98.1857 73.5396L101.681 73.5248Z" fill="black"/>
<path d="M101.696 77.0204L101.681 73.5248L98.1857 73.5396L98.2005 77.0351L101.696 77.0204Z" fill="black"/>
<path d="M101.755 91.0026L101.74 87.5071L98.2448 87.5218L98.2595 91.0174L101.755 91.0026Z" fill="black"/>
<path d="M101.785 97.9937L101.77 94.4982L98.2743 94.5129L98.289 98.0085L101.785 97.9937Z" fill="black"/>
<path d="M101.799 101.489L101.785 97.9937L98.289 98.0085L98.3038 101.504L101.799 101.489Z" fill="black"/>
<path d="M101.814 104.985L101.799 101.489L98.3038 101.504L98.3185 105L101.814 104.985Z" fill="black"/>
<path d="M101.829 108.48L101.814 104.985L98.3185 105L98.3333 108.495L101.829 108.48Z" fill="black"/>
<path d="M101.844 111.976L101.829 108.48L98.3333 108.495L98.348 111.991L101.844 111.976Z" fill="black"/>
<path d="M101.858 115.472L101.844 111.976L98.348 111.991L98.3628 115.486L101.858 115.472Z" fill="black"/>
<path d="M101.873 118.967L101.858 115.472L98.3628 115.486L98.3775 118.982L101.873 118.967Z" fill="black"/>
<path d="M101.917 129.454L101.903 125.958L98.407 125.973L98.4218 129.469L101.917 129.454Z" fill="black"/>
<path d="M97.9054 7.12391L97.8906 3.62835L94.3951 3.64311L94.4098 7.13867L97.9054 7.12391Z" fill="black"/>
<path d="M97.9349 14.115L97.9202 10.6195L94.4246 10.6342L94.4393 14.1298L97.9349 14.115Z" fill="black"/>
<path d="M97.9497 17.6106L97.9349 14.115L94.4393 14.1298L94.4541 17.6253L97.9497 17.6106Z" fill="black"/>
<path d="M97.9939 28.0973L97.9792 24.6017L94.4836 24.6165L94.4984 28.112L97.9939 28.0973Z" fill="black"/>
<path d="M98.0087 31.5928L97.9939 28.0973L94.4984 28.112L94.5131 31.6076L98.0087 31.5928Z" fill="black"/>
<path d="M98.0234 35.0884L98.0087 31.5928L94.5131 31.6076L94.5279 35.1032L98.0234 35.0884Z" fill="black"/>
<path d="M98.0382 38.584L98.0234 35.0884L94.5279 35.1032L94.5426 38.5987L98.0382 38.584Z" fill="black"/>
<path d="M98.0529 42.0795L98.0382 38.584L94.5426 38.5987L94.5574 42.0943L98.0529 42.0795Z" fill="black"/>
<path d="M98.0825 49.0706L98.0677 45.5751L94.5721 45.5898L94.5869 49.0854L98.0825 49.0706Z" fill="black"/>
<path d="M98.1267 59.5573L98.112 56.0618L94.6164 56.0765L94.6312 59.5721L98.1267 59.5573Z" fill="black"/>
<path d="M98.1415 63.0529L98.1267 59.5573L94.6312 59.5721L94.6459 63.0676L98.1415 63.0529Z" fill="black"/>
<path d="M98.1562 66.5484L98.1415 63.0529L94.6459 63.0676L94.6607 66.5632L98.1562 66.5484Z" fill="black"/>
<path d="M98.171 70.044L98.1562 66.5484L94.6607 66.5632L94.6754 70.0588L98.171 70.044Z" fill="black"/>
<path d="M98.1857 73.5396L98.171 70.044L94.6754 70.0588L94.6902 73.5543L98.1857 73.5396Z" fill="black"/>
<path d="M98.2005 77.0351L98.1857 73.5396L94.6902 73.5543L94.7049 77.0499L98.2005 77.0351Z" fill="black"/>
<path d="M98.2152 80.5307L98.2005 77.0351L94.7049 77.0499L94.7197 80.5454L98.2152 80.5307Z" fill="black"/>
<path d="M98.2448 87.5218L98.23 84.0262L94.7344 84.041L94.7492 87.5366L98.2448 87.5218Z" fill="black"/>
<path d="M98.2743 94.5129L98.2595 91.0174L94.7639 91.0321L94.7787 94.5277L98.2743 94.5129Z" fill="black"/>
<path d="M98.289 98.0085L98.2743 94.5129L94.7787 94.5277L94.7935 98.0232L98.289 98.0085Z" fill="black"/>
<path d="M98.3628 115.486L98.348 111.991L94.8525 112.005L94.8672 115.501L98.3628 115.486Z" fill="black"/>
<path d="M94.3951 3.64311L94.3803 0.147545L90.8848 0.162299L90.8995 3.65786L94.3951 3.64311Z" fill="black"/>
<path d="M94.4541 17.6253L94.4393 14.1298L90.9438 14.1445L90.9585 17.6401L94.4541 17.6253Z" fill="black"/>
<path d="M94.4836 24.6165L94.4689 21.1209L90.9733 21.1357L90.9881 24.6312L94.4836 24.6165Z" fill="black"/>
<path d="M94.5279 35.1032L94.5131 31.6076L91.0176 31.6223L91.0323 35.1179L94.5279 35.1032Z" fill="black"/>
<path d="M94.5426 38.5987L94.5279 35.1032L91.0323 35.1179L91.0471 38.6135L94.5426 38.5987Z" fill="black"/>
<path d="M94.5721 45.5898L94.5574 42.0943L91.0618 42.109L91.0766 45.6046L94.5721 45.5898Z" fill="black"/>
<path d="M94.6016 52.581L94.5869 49.0854L91.0913 49.1001L91.1061 52.5957L94.6016 52.581Z" fill="black"/>
<path d="M94.6164 56.0765L94.6016 52.581L91.1061 52.5957L91.1208 56.0913L94.6164 56.0765Z" fill="black"/>
<path d="M94.6312 59.5721L94.6164 56.0765L91.1208 56.0913L91.1356 59.5868L94.6312 59.5721Z" fill="black"/>
<path d="M94.6459 63.0676L94.6312 59.5721L91.1356 59.5868L91.1504 63.0824L94.6459 63.0676Z" fill="black"/>
<path d="M94.6754 70.0588L94.6607 66.5632L91.1651 66.5779L91.1799 70.0735L94.6754 70.0588Z" fill="black"/>
<path d="M94.7049 77.0499L94.6902 73.5543L91.1946 73.5691L91.2094 77.0646L94.7049 77.0499Z" fill="black"/>
<path d="M94.7197 80.5454L94.7049 77.0499L91.2094 77.0646L91.2241 80.5602L94.7197 80.5454Z" fill="black"/>
<path d="M94.7344 84.041L94.7197 80.5454L91.2241 80.5602L91.2389 84.0557L94.7344 84.041Z" fill="black"/>
<path d="M94.7492 87.5366L94.7344 84.041L91.2389 84.0557L91.2536 87.5513L94.7492 87.5366Z" fill="black"/>
<path d="M94.7639 91.0321L94.7492 87.5366L91.2536 87.5513L91.2684 91.0469L94.7639 91.0321Z" fill="black"/>
<path d="M94.7787 94.5277L94.7639 91.0321L91.2684 91.0469L91.2831 94.5424L94.7787 94.5277Z" fill="black"/>
<path d="M94.8082 101.519L94.7935 98.0232L91.2979 98.038L91.3127 101.534L94.8082 101.519Z" fill="black"/>
<path d="M94.8525 112.005L94.8377 108.51L91.3422 108.525L91.3569 112.02L94.8525 112.005Z" fill="black"/>
<path d="M94.8967 122.492L94.882 118.997L91.3864 119.011L91.4012 122.507L94.8967 122.492Z" fill="black"/>
<path d="M94.9262 129.483L94.9115 125.988L91.4159 126.002L91.4307 129.498L94.9262 129.483Z" fill="black"/>
<path d="M90.9438 14.1445L90.929 10.649L87.4335 10.6637L87.4482 14.1593L90.9438 14.1445Z" fill="black"/>
<path d="M90.9733 21.1357L90.9585 17.6401L87.463 17.6549L87.4777 21.1504L90.9733 21.1357Z" fill="black"/>
<path d="M91.0176 31.6223L91.0028 28.1268L87.5072 28.1415L87.522 31.6371L91.0176 31.6223Z" fill="black"/>
<path d="M91.0323 35.1179L91.0176 31.6223L87.522 31.6371L87.5368 35.1327L91.0323 35.1179Z" fill="black"/>
<path d="M91.1061 52.5957L91.0913 49.1001L87.5958 49.1149L87.6105 52.6105L91.1061 52.5957Z" fill="black"/>
<path d="M91.1946 73.5691L91.1799 70.0735L87.6843 70.0883L87.6991 73.5838L91.1946 73.5691Z" fill="black"/>
<path d="M91.2094 77.0646L91.1946 73.5691L87.6991 73.5838L87.7138 77.0794L91.2094 77.0646Z" fill="black"/>
<path d="M91.2684 91.0469L91.2536 87.5513L87.7581 87.5661L87.7728 91.0616L91.2684 91.0469Z" fill="black"/>
<path d="M91.2831 94.5424L91.2684 91.0469L87.7728 91.0616L87.7876 94.5572L91.2831 94.5424Z" fill="black"/>
<path d="M91.3274 105.029L91.3127 101.534L87.8171 101.548L87.8318 105.044L91.3274 105.029Z" fill="black"/>
<path d="M91.3569 112.02L91.3422 108.525L87.8466 108.539L87.8614 112.035L91.3569 112.02Z" fill="black"/>
<path d="M91.4012 122.507L91.3864 119.011L87.8909 119.026L87.9056 122.522L91.4012 122.507Z" fill="black"/>
<path d="M91.4159 126.002L91.4012 122.507L87.9056 122.522L87.9204 126.017L91.4159 126.002Z" fill="black"/>
<path d="M91.4307 129.498L91.4159 126.002L87.9204 126.017L87.9351 129.513L91.4307 129.498Z" fill="black"/>
<path d="M87.4187 7.16817L87.404 3.67261L83.9084 3.68737L83.9232 7.18293L87.4187 7.16817Z" fill="black"/>
<path d="M87.4335 10.6637L87.4187 7.16817L83.9232 7.18293L83.9379 10.6785L87.4335 10.6637Z" fill="black"/>
<path d="M87.463 17.6549L87.4482 14.1593L83.9527 14.1741L83.9674 17.6696L87.463 17.6549Z" fill="black"/>
<path d="M87.4777 21.1504L87.463 17.6549L83.9674 17.6696L83.9822 21.1652L87.4777 21.1504Z" fill="black"/>
<path d="M87.4925 24.646L87.4777 21.1504L83.9822 21.1652L83.9969 24.6607L87.4925 24.646Z" fill="black"/>
<path d="M87.5515 38.6282L87.5368 35.1327L84.0412 35.1474L84.0559 38.643L87.5515 38.6282Z" fill="black"/>
<path d="M87.5663 42.1238L87.5515 38.6282L84.0559 38.643L84.0707 42.1385L87.5663 42.1238Z" fill="black"/>
<path d="M87.6253 56.106L87.6105 52.6105L84.115 52.6252L84.1297 56.1208L87.6253 56.106Z" fill="black"/>
<path d="M87.64 59.6016L87.6253 56.106L84.1297 56.1208L84.1445 59.6163L87.64 59.6016Z" fill="black"/>
<path d="M87.6548 63.0971L87.64 59.6016L84.1445 59.6163L84.1592 63.1119L87.6548 63.0971Z" fill="black"/>
<path d="M87.6695 66.5927L87.6548 63.0971L84.1592 63.1119L84.174 66.6075L87.6695 66.5927Z" fill="black"/>
<path d="M87.6991 73.5838L87.6843 70.0883L84.1887 70.103L84.2035 73.5986L87.6991 73.5838Z" fill="black"/>
<path d="M87.7286 80.575L87.7138 77.0794L84.2182 77.0941L84.233 80.5897L87.7286 80.575Z" fill="black"/>
<path d="M87.7728 91.0616L87.7581 87.5661L84.2625 87.5808L84.2773 91.0764L87.7728 91.0616Z" fill="black"/>
<path d="M87.7876 94.5572L87.7728 91.0616L84.2773 91.0764L84.292 94.5719L87.7876 94.5572Z" fill="black"/>
<path d="M87.8023 98.0528L87.7876 94.5572L84.292 94.5719L84.3068 98.0675L87.8023 98.0528Z" fill="black"/>
<path d="M87.8171 101.548L87.8023 98.0528L84.3068 98.0675L84.3215 101.563L87.8171 101.548Z" fill="black"/>
<path d="M87.8761 115.531L87.8614 112.035L84.3658 112.05L84.3805 115.545L87.8761 115.531Z" fill="black"/>
<path d="M87.8909 119.026L87.8761 115.531L84.3805 115.545L84.3953 119.041L87.8909 119.026Z" fill="black"/>
<path d="M87.9056 122.522L87.8909 119.026L84.3953 119.041L84.4101 122.536L87.9056 122.522Z" fill="black"/>
<path d="M83.9084 3.68737L83.8936 0.191808L80.3981 0.206562L80.4128 3.70212L83.9084 3.68737Z" fill="black"/>
<path d="M83.9232 7.18293L83.9084 3.68737L80.4128 3.70212L80.4276 7.19768L83.9232 7.18293Z" fill="black"/>
<path d="M83.9527 14.1741L83.9379 10.6785L80.4424 10.6932L80.4571 14.1888L83.9527 14.1741Z" fill="black"/>
<path d="M84.0117 28.1563L83.9969 24.6607L80.5014 24.6755L80.5161 28.171L84.0117 28.1563Z" fill="black"/>
<path d="M84.0559 38.643L84.0412 35.1474L80.5456 35.1622L80.5604 38.6577L84.0559 38.643Z" fill="black"/>
<path d="M84.0855 45.6341L84.0707 42.1385L80.5751 42.1533L80.5899 45.6489L84.0855 45.6341Z" fill="black"/>
<path d="M84.115 52.6252L84.1002 49.1297L80.6047 49.1444L80.6194 52.64L84.115 52.6252Z" fill="black"/>
<path d="M84.1297 56.1208L84.115 52.6252L80.6194 52.64L80.6342 56.1355L84.1297 56.1208Z" fill="black"/>
<path d="M84.1887 70.103L84.174 66.6075L80.6784 66.6222L80.6932 70.1178L84.1887 70.103Z" fill="black"/>
<path d="M84.2182 77.0941L84.2035 73.5986L80.7079 73.6133L80.7227 77.1089L84.2182 77.0941Z" fill="black"/>
<path d="M84.2625 87.5808L84.2478 84.0853L80.7522 84.1L80.767 87.5956L84.2625 87.5808Z" fill="black"/>
<path d="M84.3068 98.0675L84.292 94.5719L80.7965 94.5867L80.8112 98.0823L84.3068 98.0675Z" fill="black"/>
<path d="M84.3215 101.563L84.3068 98.0675L80.8112 98.0823L80.826 101.578L84.3215 101.563Z" fill="black"/>
<path d="M84.3805 115.545L84.3658 112.05L80.8702 112.065L80.885 115.56L84.3805 115.545Z" fill="black"/>
<path d="M80.4128 3.70212L80.3981 0.206562L76.9025 0.221317L76.9173 3.71688L80.4128 3.70212Z" fill="black"/>
<path d="M80.4276 7.19768L80.4128 3.70212L76.9173 3.71688L76.932 7.21244L80.4276 7.19768Z" fill="black"/>
<path d="M80.4719 17.6844L80.4571 14.1888L76.9615 14.2036L76.9763 17.6991L80.4719 17.6844Z" fill="black"/>
<path d="M80.5014 24.6755L80.4866 21.1799L76.9911 21.1947L77.0058 24.6902L80.5014 24.6755Z" fill="black"/>
<path d="M80.5161 28.171L80.5014 24.6755L77.0058 24.6902L77.0206 28.1858L80.5161 28.171Z" fill="black"/>
<path d="M80.5309 31.6666L80.5161 28.171L77.0206 28.1858L77.0353 31.6814L80.5309 31.6666Z" fill="black"/>
<path d="M80.6194 52.64L80.6047 49.1444L77.1091 49.1592L77.1238 52.6547L80.6194 52.64Z" fill="black"/>
<path d="M80.6342 56.1355L80.6194 52.64L77.1238 52.6547L77.1386 56.1503L80.6342 56.1355Z" fill="black"/>
<path d="M80.6637 63.1267L80.6489 59.6311L77.1534 59.6458L77.1681 63.1414L80.6637 63.1267Z" fill="black"/>
<path d="M80.6932 70.1178L80.6784 66.6222L77.1829 66.637L77.1976 70.1325L80.6932 70.1178Z" fill="black"/>
<path d="M80.7079 73.6133L80.6932 70.1178L77.1976 70.1325L77.2124 73.6281L80.7079 73.6133Z" fill="black"/>
<path d="M80.7522 84.1L80.7374 80.6045L77.2419 80.6192L77.2566 84.1148L80.7522 84.1Z" fill="black"/>
<path d="M80.767 87.5956L80.7522 84.1L77.2566 84.1148L77.2714 87.6103L80.767 87.5956Z" fill="black"/>
<path d="M80.8112 98.0823L80.7965 94.5867L77.3009 94.6015L77.3157 98.097L80.8112 98.0823Z" fill="black"/>
<path d="M80.8407 105.073L80.826 101.578L77.3304 101.593L77.3452 105.088L80.8407 105.073Z" fill="black"/>
<path d="M80.8555 108.569L80.8407 105.073L77.3452 105.088L77.3599 108.584L80.8555 108.569Z" fill="black"/>
<path d="M80.9145 122.551L80.8997 119.056L77.4042 119.07L77.4189 122.566L80.9145 122.551Z" fill="black"/>
<path d="M80.9293 126.047L80.9145 122.551L77.4189 122.566L77.4337 126.062L80.9293 126.047Z" fill="black"/>
<path d="M76.9911 21.1947L76.9763 17.6991L73.4807 17.7139L73.4955 21.2094L76.9911 21.1947Z" fill="black"/>
<path d="M77.0648 38.6725L77.0501 35.1769L73.5545 35.1917L73.5693 38.6872L77.0648 38.6725Z" fill="black"/>
<path d="M77.0943 45.6636L77.0796 42.168L73.584 42.1828L73.5988 45.6784L77.0943 45.6636Z" fill="black"/>
<path d="M77.1238 52.6547L77.1091 49.1592L73.6135 49.1739L73.6283 52.6695L77.1238 52.6547Z" fill="black"/>
<path d="M77.1386 56.1503L77.1238 52.6547L73.6283 52.6695L73.643 56.165L77.1386 56.1503Z" fill="black"/>
<path d="M77.1534 59.6458L77.1386 56.1503L73.643 56.165L73.6578 59.6606L77.1534 59.6458Z" fill="black"/>
<path d="M77.1976 70.1325L77.1829 66.637L73.6873 66.6517L73.7021 70.1473L77.1976 70.1325Z" fill="black"/>
<path d="M77.2271 77.1236L77.2124 73.6281L73.7168 73.6428L73.7316 77.1384L77.2271 77.1236Z" fill="black"/>
<path d="M77.2419 80.6192L77.2271 77.1236L73.7316 77.1384L73.7463 80.634L77.2419 80.6192Z" fill="black"/>
<path d="M77.2714 87.6103L77.2566 84.1148L73.7611 84.1295L73.7758 87.6251L77.2714 87.6103Z" fill="black"/>
<path d="M77.3009 94.6015L77.2861 91.1059L73.7906 91.1206L73.8053 94.6162L77.3009 94.6015Z" fill="black"/>
<path d="M77.3304 101.593L77.3157 98.097L73.8201 98.1118L73.8348 101.607L77.3304 101.593Z" fill="black"/>
<path d="M77.3452 105.088L77.3304 101.593L73.8348 101.607L73.8496 105.103L77.3452 105.088Z" fill="black"/>
<path d="M77.3599 108.584L77.3452 105.088L73.8496 105.103L73.8644 108.598L77.3599 108.584Z" fill="black"/>
<path d="M77.3894 115.575L77.3747 112.079L73.8791 112.094L73.8939 115.59L77.3894 115.575Z" fill="black"/>
<path d="M77.4337 126.062L77.4189 122.566L73.9234 122.581L73.9381 126.076L77.4337 126.062Z" fill="black"/>
<path d="M73.4217 3.73163L73.407 0.236071L69.9114 0.250826L69.9262 3.74639L73.4217 3.73163Z" fill="black"/>
<path d="M73.4365 7.22719L73.4217 3.73163L69.9262 3.74639L69.9409 7.24195L73.4365 7.22719Z" fill="black"/>
<path d="M73.4807 17.7139L73.466 14.2183L69.9704 14.2331L69.9852 17.7286L73.4807 17.7139Z" fill="black"/>
<path d="M73.5102 24.705L73.4955 21.2094L69.9999 21.2242L70.0147 24.7198L73.5102 24.705Z" fill="black"/>
<path d="M73.5545 35.1917L73.5398 31.6961L70.0442 31.7109L70.059 35.2064L73.5545 35.1917Z" fill="black"/>
<path d="M73.5693 38.6872L73.5545 35.1917L70.059 35.2064L70.0737 38.702L73.5693 38.6872Z" fill="black"/>
<path d="M73.584 42.1828L73.5693 38.6872L70.0737 38.702L70.0885 42.1976L73.584 42.1828Z" fill="black"/>
<path d="M73.6135 49.1739L73.5988 45.6784L70.1032 45.6931L70.118 49.1887L73.6135 49.1739Z" fill="black"/>
<path d="M73.643 56.165L73.6283 52.6695L70.1327 52.6842L70.1475 56.1798L73.643 56.165Z" fill="black"/>
<path d="M73.6873 66.6517L73.6725 63.1562L70.177 63.1709L70.1917 66.6665L73.6873 66.6517Z" fill="black"/>
<path d="M73.7021 70.1473L73.6873 66.6517L70.1917 66.6665L70.2065 70.162L73.7021 70.1473Z" fill="black"/>
<path d="M73.7463 80.634L73.7316 77.1384L70.236 77.1532L70.2508 80.6487L73.7463 80.634Z" fill="black"/>
<path d="M73.8201 98.1118L73.8053 94.6162L70.3098 94.631L70.3245 98.1265L73.8201 98.1118Z" fill="black"/>
<path d="M73.8939 115.59L73.8791 112.094L70.3836 112.109L70.3983 115.604L73.8939 115.59Z" fill="black"/>
<path d="M69.9262 3.74639L69.9114 0.250826L66.4158 0.26558L66.4306 3.76114L69.9262 3.74639Z" fill="black"/>
<path d="M69.9704 14.2331L69.9557 10.7375L66.4601 10.7523L66.4749 14.2478L69.9704 14.2331Z" fill="black"/>
<path d="M70.0294 28.2153L70.0147 24.7198L66.5191 24.7345L66.5339 28.2301L70.0294 28.2153Z" fill="black"/>
<path d="M70.0885 42.1976L70.0737 38.702L66.5781 38.7167L66.5929 42.2123L70.0885 42.1976Z" fill="black"/>
<path d="M70.1032 45.6931L70.0885 42.1976L66.5929 42.2123L66.6076 45.7079L70.1032 45.6931Z" fill="black"/>
<path d="M70.1622 59.6754L70.1475 56.1798L66.6519 56.1945L66.6667 59.6901L70.1622 59.6754Z" fill="black"/>
<path d="M70.236 77.1532L70.2212 73.6576L66.7257 73.6724L66.7404 77.1679L70.236 77.1532Z" fill="black"/>
<path d="M70.2803 87.6398L70.2655 84.1443L66.7699 84.159L66.7847 87.6546L70.2803 87.6398Z" fill="black"/>
<path d="M70.3098 94.631L70.295 91.1354L66.7995 91.1502L66.8142 94.6457L70.3098 94.631Z" fill="black"/>
<path d="M70.354 105.118L70.3393 101.622L66.8437 101.637L66.8585 105.132L70.354 105.118Z" fill="black"/>
<path d="M70.3688 108.613L70.354 105.118L66.8585 105.132L66.8732 108.628L70.3688 108.613Z" fill="black"/>
<path d="M70.4131 119.1L70.3983 115.604L66.9027 115.619L66.9175 119.115L70.4131 119.1Z" fill="black"/>
<path d="M70.4278 122.595L70.4131 119.1L66.9175 119.115L66.9322 122.61L70.4278 122.595Z" fill="black"/>
<path d="M70.4426 126.091L70.4278 122.595L66.9322 122.61L66.947 126.106L70.4426 126.091Z" fill="black"/>
<path d="M66.4601 10.7523L66.4454 7.2567L62.9498 7.27146L62.9646 10.767L66.4601 10.7523Z" fill="black"/>
<path d="M66.4749 14.2478L66.4601 10.7523L62.9646 10.767L62.9793 14.2626L66.4749 14.2478Z" fill="black"/>
<path d="M66.5191 24.7345L66.5044 21.2389L63.0088 21.2537L63.0236 24.7493L66.5191 24.7345Z" fill="black"/>
<path d="M66.5339 28.2301L66.5191 24.7345L63.0236 24.7493L63.0383 28.2448L66.5339 28.2301Z" fill="black"/>
<path d="M66.5634 35.2212L66.5486 31.7256L63.0531 31.7404L63.0678 35.2359L66.5634 35.2212Z" fill="black"/>
<path d="M66.5781 38.7167L66.5634 35.2212L63.0678 35.2359L63.0826 38.7315L66.5781 38.7167Z" fill="black"/>
<path d="M66.5929 42.2123L66.5781 38.7167L63.0826 38.7315L63.0973 42.2271L66.5929 42.2123Z" fill="black"/>
<path d="M66.6372 52.699L66.6224 49.2034L63.1269 49.2182L63.1416 52.7137L66.6372 52.699Z" fill="black"/>
<path d="M66.6667 59.6901L66.6519 56.1945L63.1564 56.2093L63.1711 59.7049L66.6667 59.6901Z" fill="black"/>
<path d="M66.7404 77.1679L66.7257 73.6724L63.2301 73.6871L63.2449 77.1827L66.7404 77.1679Z" fill="black"/>
<path d="M66.7699 84.159L66.7552 80.6635L63.2596 80.6782L63.2744 84.1738L66.7699 84.159Z" fill="black"/>
<path d="M66.7995 91.1502L66.7847 87.6546L63.2892 87.6694L63.3039 91.1649L66.7995 91.1502Z" fill="black"/>
<path d="M66.829 98.1413L66.8142 94.6457L63.3187 94.6605L63.3334 98.156L66.829 98.1413Z" fill="black"/>
<path d="M66.8437 101.637L66.829 98.1413L63.3334 98.156L63.3482 101.652L66.8437 101.637Z" fill="black"/>
<path d="M66.8585 105.132L66.8437 101.637L63.3482 101.652L63.3629 105.147L66.8585 105.132Z" fill="black"/>
<path d="M66.8732 108.628L66.8585 105.132L63.3629 105.147L63.3777 108.643L66.8732 108.628Z" fill="black"/>
<path d="M66.9027 115.619L66.888 112.124L63.3924 112.138L63.4072 115.634L66.9027 115.619Z" fill="black"/>
<path d="M66.9618 129.601L66.947 126.106L63.4515 126.121L63.4662 129.616L66.9618 129.601Z" fill="black"/>
<path d="M62.935 3.7759L62.9203 0.280335L59.4247 0.295089L59.4395 3.79065L62.935 3.7759Z" fill="black"/>
<path d="M62.9498 7.27146L62.935 3.7759L59.4395 3.79065L59.4542 7.28621L62.9498 7.27146Z" fill="black"/>
<path d="M62.9646 10.767L62.9498 7.27146L59.4542 7.28621L59.469 10.7818L62.9646 10.767Z" fill="black"/>
<path d="M63.0383 28.2448L63.0236 24.7493L59.528 24.764L59.5428 28.2596L63.0383 28.2448Z" fill="black"/>
<path d="M63.0531 31.7404L63.0383 28.2448L59.5428 28.2596L59.5575 31.7551L63.0531 31.7404Z" fill="black"/>
<path d="M63.0826 38.7315L63.0678 35.2359L59.5723 35.2507L59.587 38.7463L63.0826 38.7315Z" fill="black"/>
<path d="M63.0973 42.2271L63.0826 38.7315L59.587 38.7463L59.6018 42.2418L63.0973 42.2271Z" fill="black"/>
<path d="M63.1269 49.2182L63.1121 45.7226L59.6165 45.7374L59.6313 49.2329L63.1269 49.2182Z" fill="black"/>
<path d="M63.1416 52.7137L63.1269 49.2182L59.6313 49.2329L59.646 52.7285L63.1416 52.7137Z" fill="black"/>
<path d="M63.1711 59.7049L63.1564 56.2093L59.6608 56.2241L59.6755 59.7196L63.1711 59.7049Z" fill="black"/>
<path d="M63.2006 66.696L63.1859 63.2004L59.6903 63.2152L59.7051 66.7107L63.2006 66.696Z" fill="black"/>
<path d="M63.2154 70.1915L63.2006 66.696L59.7051 66.7107L59.7198 70.2063L63.2154 70.1915Z" fill="black"/>
<path d="M63.2301 73.6871L63.2154 70.1915L59.7198 70.2063L59.7346 73.7019L63.2301 73.6871Z" fill="black"/>
<path d="M63.2449 77.1827L63.2301 73.6871L59.7346 73.7019L59.7493 77.1974L63.2449 77.1827Z" fill="black"/>
<path d="M63.2744 84.1738L63.2596 80.6782L59.7641 80.693L59.7788 84.1885L63.2744 84.1738Z" fill="black"/>
<path d="M63.2892 87.6694L63.2744 84.1738L59.7788 84.1885L59.7936 87.6841L63.2892 87.6694Z" fill="black"/>
<path d="M63.3039 91.1649L63.2892 87.6694L59.7936 87.6841L59.8083 91.1797L63.3039 91.1649Z" fill="black"/>
<path d="M63.3334 98.156L63.3187 94.6605L59.8231 94.6752L59.8378 98.1708L63.3334 98.156Z" fill="black"/>
<path d="M63.3482 101.652L63.3334 98.156L59.8378 98.1708L59.8526 101.666L63.3482 101.652Z" fill="black"/>
<path d="M63.3629 105.147L63.3482 101.652L59.8526 101.666L59.8674 105.162L63.3629 105.147Z" fill="black"/>
<path d="M63.3777 108.643L63.3629 105.147L59.8674 105.162L59.8821 108.657L63.3777 108.643Z" fill="black"/>
<path d="M63.4662 129.616L63.4515 126.121L59.9559 126.135L59.9706 129.631L63.4662 129.616Z" fill="black"/>
<path d="M59.4395 3.79065L59.4247 0.295089L55.9292 0.309843L55.9439 3.8054L59.4395 3.79065Z" fill="black"/>
<path d="M59.528 24.764L59.5133 21.2685L56.0177 21.2832L56.0324 24.7788L59.528 24.764Z" fill="black"/>
<path d="M59.5428 28.2596L59.528 24.764L56.0324 24.7788L56.0472 28.2743L59.5428 28.2596Z" fill="black"/>
<path d="M59.587 38.7463L59.5723 35.2507L56.0767 35.2655L56.0915 38.761L59.587 38.7463Z" fill="black"/>
<path d="M59.6018 42.2418L59.587 38.7463L56.0915 38.761L56.1062 42.2566L59.6018 42.2418Z" fill="black"/>
<path d="M59.646 52.7285L59.6313 49.2329L56.1357 49.2477L56.1505 52.7433L59.646 52.7285Z" fill="black"/>
<path d="M59.7198 70.2063L59.7051 66.7107L56.2095 66.7255L56.2243 70.2211L59.7198 70.2063Z" fill="black"/>
<path d="M59.7346 73.7019L59.7198 70.2063L56.2243 70.2211L56.239 73.7166L59.7346 73.7019Z" fill="black"/>
<path d="M59.7493 77.1974L59.7346 73.7019L56.239 73.7166L56.2538 77.2122L59.7493 77.1974Z" fill="black"/>
<path d="M59.7641 80.693L59.7493 77.1974L56.2538 77.2122L56.2685 80.7077L59.7641 80.693Z" fill="black"/>
<path d="M59.7788 84.1885L59.7641 80.693L56.2685 80.7077L56.2833 84.2033L59.7788 84.1885Z" fill="black"/>
<path d="M59.7936 87.6841L59.7788 84.1885L56.2833 84.2033L56.298 87.6989L59.7936 87.6841Z" fill="black"/>
<path d="M59.8674 105.162L59.8526 101.666L56.357 101.681L56.3718 105.177L59.8674 105.162Z" fill="black"/>
<path d="M59.9116 115.649L59.8969 112.153L56.4013 112.168L56.4161 115.663L59.9116 115.649Z" fill="black"/>
<path d="M59.9264 119.144L59.9116 115.649L56.4161 115.663L56.4308 119.159L59.9264 119.144Z" fill="black"/>
<path d="M55.9439 3.8054L55.9292 0.309843L52.4336 0.324598L52.4484 3.82016L55.9439 3.8054Z" fill="black"/>
<path d="M55.9587 7.30096L55.9439 3.8054L52.4484 3.82016L52.4631 7.31572L55.9587 7.30096Z" fill="black"/>
<path d="M55.9734 10.7965L55.9587 7.30096L52.4631 7.31572L52.4779 10.8113L55.9734 10.7965Z" fill="black"/>
<path d="M55.9882 14.2921L55.9734 10.7965L52.4779 10.8113L52.4926 14.3068L55.9882 14.2921Z" fill="black"/>
<path d="M56.0029 17.7876L55.9882 14.2921L52.4926 14.3068L52.5074 17.8024L56.0029 17.7876Z" fill="black"/>
<path d="M56.062 31.7699L56.0472 28.2743L52.5516 28.2891L52.5664 31.7846L56.062 31.7699Z" fill="black"/>
<path d="M56.0915 38.761L56.0767 35.2655L52.5811 35.2802L52.5959 38.7758L56.0915 38.761Z" fill="black"/>
<path d="M56.1357 49.2477L56.121 45.7521L52.6254 45.7669L52.6402 49.2624L56.1357 49.2477Z" fill="black"/>
<path d="M56.1652 56.2388L56.1505 52.7433L52.6549 52.758L52.6697 56.2536L56.1652 56.2388Z" fill="black"/>
<path d="M56.18 59.7344L56.1652 56.2388L52.6697 56.2536L52.6844 59.7491L56.18 59.7344Z" fill="black"/>
<path d="M56.2095 66.7255L56.1947 63.2299L52.6992 63.2447L52.7139 66.7402L56.2095 66.7255Z" fill="black"/>
<path d="M56.2685 80.7077L56.2538 77.2122L52.7582 77.2269L52.773 80.7225L56.2685 80.7077Z" fill="black"/>
<path d="M56.298 87.6989L56.2833 84.2033L52.7877 84.218L52.8025 87.7136L56.298 87.6989Z" fill="black"/>
<path d="M56.3718 105.177L56.357 101.681L52.8615 101.696L52.8762 105.191L56.3718 105.177Z" fill="black"/>
<path d="M56.4013 112.168L56.3866 108.672L52.891 108.687L52.9057 112.183L56.4013 112.168Z" fill="black"/>
<path d="M56.4161 115.663L56.4013 112.168L52.9057 112.183L52.9205 115.678L56.4161 115.663Z" fill="black"/>
<path d="M56.4308 119.159L56.4161 115.663L52.9205 115.678L52.9353 119.174L56.4308 119.159Z" fill="black"/>
<path d="M56.4456 122.654L56.4308 119.159L52.9353 119.174L52.95 122.669L56.4456 122.654Z" fill="black"/>
<path d="M52.4484 3.82016L52.4336 0.324598L48.938 0.339352L48.9528 3.83491L52.4484 3.82016Z" fill="black"/>
<path d="M52.4631 7.31572L52.4484 3.82016L48.9528 3.83491L48.9675 7.33047L52.4631 7.31572Z" fill="black"/>
<path d="M52.5221 21.298L52.5074 17.8024L49.0118 17.8172L49.0266 21.3127L52.5221 21.298Z" fill="black"/>
<path d="M52.5369 24.7935L52.5221 21.298L49.0266 21.3127L49.0413 24.8083L52.5369 24.7935Z" fill="black"/>
<path d="M52.5516 28.2891L52.5369 24.7935L49.0413 24.8083L49.0561 28.3038L52.5516 28.2891Z" fill="black"/>
<path d="M52.5664 31.7846L52.5516 28.2891L49.0561 28.3038L49.0708 31.7994L52.5664 31.7846Z" fill="black"/>
<path d="M52.6402 49.2624L52.6254 45.7669L49.1298 45.7816L49.1446 49.2772L52.6402 49.2624Z" fill="black"/>
<path d="M52.6697 56.2536L52.6549 52.758L49.1594 52.7728L49.1741 56.2683L52.6697 56.2536Z" fill="black"/>
<path d="M52.6844 59.7491L52.6697 56.2536L49.1741 56.2683L49.1889 59.7639L52.6844 59.7491Z" fill="black"/>
<path d="M52.6992 63.2447L52.6844 59.7491L49.1889 59.7639L49.2036 63.2594L52.6992 63.2447Z" fill="black"/>
<path d="M52.7582 77.2269L52.7434 73.7314L49.2479 73.7461L49.2626 77.2417L52.7582 77.2269Z" fill="black"/>
<path d="M52.8025 87.7136L52.7877 84.218L49.2921 84.2328L49.3069 87.7284L52.8025 87.7136Z" fill="black"/>
<path d="M52.8172 91.2092L52.8025 87.7136L49.3069 87.7284L49.3217 91.2239L52.8172 91.2092Z" fill="black"/>
<path d="M52.832 94.7047L52.8172 91.2092L49.3217 91.2239L49.3364 94.7195L52.832 94.7047Z" fill="black"/>
<path d="M52.8615 101.696L52.8467 98.2003L49.3512 98.2151L49.3659 101.711L52.8615 101.696Z" fill="black"/>
<path d="M52.8762 105.191L52.8615 101.696L49.3659 101.711L49.3807 105.206L52.8762 105.191Z" fill="black"/>
<path d="M52.9353 119.174L52.9205 115.678L49.4249 115.693L49.4397 119.188L52.9353 119.174Z" fill="black"/>
<path d="M52.9648 126.165L52.95 122.669L49.4544 122.684L49.4692 126.18L52.9648 126.165Z" fill="black"/>
<path d="M52.9795 129.66L52.9648 126.165L49.4692 126.18L49.484 129.675L52.9795 129.66Z" fill="black"/>
<path d="M48.9528 3.83491L48.938 0.339352L45.4425 0.354107L45.4572 3.84967L48.9528 3.83491Z" fill="black"/>
<path d="M48.9675 7.33047L48.9528 3.83491L45.4572 3.84967L45.472 7.34523L48.9675 7.33047Z" fill="black"/>
<path d="M48.9823 10.826L48.9675 7.33047L45.472 7.34523L45.4868 10.8408L48.9823 10.826Z" fill="black"/>
<path d="M48.9971 14.3216L48.9823 10.826L45.4868 10.8408L45.5015 14.3363L48.9971 14.3216Z" fill="black"/>
<path d="M49.0266 21.3127L49.0118 17.8172L45.5163 17.8319L45.531 21.3275L49.0266 21.3127Z" fill="black"/>
<path d="M49.0561 28.3038L49.0413 24.8083L45.5458 24.823L45.5605 28.3186L49.0561 28.3038Z" fill="black"/>
<path d="M49.0708 31.7994L49.0561 28.3038L45.5605 28.3186L45.5753 31.8142L49.0708 31.7994Z" fill="black"/>
<path d="M49.1003 38.7905L49.0856 35.295L45.59 35.3097L45.6048 38.8053L49.1003 38.7905Z" fill="black"/>
<path d="M49.1151 42.2861L49.1003 38.7905L45.6048 38.8053L45.6195 42.3008L49.1151 42.2861Z" fill="black"/>
<path d="M49.1298 45.7816L49.1151 42.2861L45.6195 42.3008L45.6343 45.7964L49.1298 45.7816Z" fill="black"/>
<path d="M49.1446 49.2772L49.1298 45.7816L45.6343 45.7964L45.649 49.292L49.1446 49.2772Z" fill="black"/>
<path d="M49.2036 63.2594L49.1889 59.7639L45.6933 59.7786L45.7081 63.2742L49.2036 63.2594Z" fill="black"/>
<path d="M49.2331 70.2506L49.2184 66.755L45.7228 66.7698L45.7376 70.2653L49.2331 70.2506Z" fill="black"/>
<path d="M49.2479 73.7461L49.2331 70.2506L45.7376 70.2653L45.7523 73.7609L49.2479 73.7461Z" fill="black"/>
<path d="M49.2626 77.2417L49.2479 73.7461L45.7523 73.7609L45.7671 77.2564L49.2626 77.2417Z" fill="black"/>
<path d="M49.2774 80.7373L49.2626 77.2417L45.7671 77.2564L45.7818 80.752L49.2774 80.7373Z" fill="black"/>
<path d="M49.3659 101.711L49.3512 98.2151L45.8556 98.2298L45.8704 101.725L49.3659 101.711Z" fill="black"/>
<path d="M49.3954 108.702L49.3807 105.206L45.8851 105.221L45.8999 108.716L49.3954 108.702Z" fill="black"/>
<path d="M49.4102 112.197L49.3954 108.702L45.8999 108.716L45.9146 112.212L49.4102 112.197Z" fill="black"/>
<path d="M45.472 7.34523L45.4572 3.84967L41.9617 3.86442L41.9764 7.35998L45.472 7.34523Z" fill="black"/>
<path d="M45.5458 24.823L45.531 21.3275L42.0354 21.3422L42.0502 24.8378L45.5458 24.823Z" fill="black"/>
<path d="M45.59 35.3097L45.5753 31.8142L42.0797 31.8289L42.0945 35.3245L45.59 35.3097Z" fill="black"/>
<path d="M45.6195 42.3008L45.6048 38.8053L42.1092 38.82L42.124 42.3156L45.6195 42.3008Z" fill="black"/>
<path d="M45.6343 45.7964L45.6195 42.3008L42.124 42.3156L42.1387 45.8112L45.6343 45.7964Z" fill="black"/>
<path d="M45.649 49.292L45.6343 45.7964L42.1387 45.8112L42.1535 49.3067L45.649 49.292Z" fill="black"/>
<path d="M45.6933 59.7786L45.6786 56.2831L42.183 56.2978L42.1977 59.7934L45.6933 59.7786Z" fill="black"/>
<path d="M45.7228 66.7698L45.7081 63.2742L42.2125 63.289L42.2273 66.7845L45.7228 66.7698Z" fill="black"/>
<path d="M45.7523 73.7609L45.7376 70.2653L42.242 70.2801L42.2568 73.7756L45.7523 73.7609Z" fill="black"/>
<path d="M45.8261 91.2387L45.8113 87.7431L42.3158 87.7579L42.3305 91.2534L45.8261 91.2387Z" fill="black"/>
<path d="M45.8556 98.2298L45.8409 94.7342L42.3453 94.749L42.36 98.2446L45.8556 98.2298Z" fill="black"/>
<path d="M45.8704 101.725L45.8556 98.2298L42.36 98.2446L42.3748 101.74L45.8704 101.725Z" fill="black"/>
<path d="M45.9146 112.212L45.8999 108.716L42.4043 108.731L42.4191 112.227L45.9146 112.212Z" fill="black"/>
<path d="M45.9294 115.708L45.9146 112.212L42.4191 112.227L42.4338 115.722L45.9294 115.708Z" fill="black"/>
<path d="M45.9589 122.699L45.9441 119.203L42.4486 119.218L42.4633 122.713L45.9589 122.699Z" fill="black"/>
<path d="M45.9884 129.69L45.9736 126.194L42.4781 126.209L42.4928 129.705L45.9884 129.69Z" fill="black"/>
<path d="M41.9617 3.86442L41.9469 0.368861L38.4514 0.383616L38.4661 3.87918L41.9617 3.86442Z" fill="black"/>
<path d="M41.9764 7.35998L41.9617 3.86442L38.4661 3.87918L38.4809 7.37474L41.9764 7.35998Z" fill="black"/>
<path d="M41.9912 10.8555L41.9764 7.35998L38.4809 7.37474L38.4956 10.8703L41.9912 10.8555Z" fill="black"/>
<path d="M42.0059 14.3511L41.9912 10.8555L38.4956 10.8703L38.5104 14.3659L42.0059 14.3511Z" fill="black"/>
<path d="M42.0207 17.8467L42.0059 14.3511L38.5104 14.3659L38.5251 17.8614L42.0207 17.8467Z" fill="black"/>
<path d="M42.065 28.3333L42.0502 24.8378L38.5546 24.8525L38.5694 28.3481L42.065 28.3333Z" fill="black"/>
<path d="M42.1682 52.8023L42.1535 49.3067L38.6579 49.3215L38.6727 52.817L42.1682 52.8023Z" fill="black"/>
<path d="M42.1977 59.7934L42.183 56.2978L38.6874 56.3126L38.7022 59.8081L42.1977 59.7934Z" fill="black"/>
<path d="M42.242 70.2801L42.2273 66.7845L38.7317 66.7993L38.7465 70.2948L42.242 70.2801Z" fill="black"/>
<path d="M42.3305 91.2534L42.3158 87.7579L38.8202 87.7726L38.835 91.2682L42.3305 91.2534Z" fill="black"/>
<path d="M42.3453 94.749L42.3305 91.2534L38.835 91.2682L38.8497 94.7638L42.3453 94.749Z" fill="black"/>
<path d="M42.3748 101.74L42.36 98.2446L38.8645 98.2593L38.8792 101.755L42.3748 101.74Z" fill="black"/>
<path d="M42.4191 112.227L42.4043 108.731L38.9087 108.746L38.9235 112.242L42.4191 112.227Z" fill="black"/>
<path d="M42.4338 115.722L42.4191 112.227L38.9235 112.242L38.9383 115.737L42.4338 115.722Z" fill="black"/>
<path d="M42.4486 119.218L42.4338 115.722L38.9383 115.737L38.953 119.233L42.4486 119.218Z" fill="black"/>
<path d="M42.4633 122.713L42.4486 119.218L38.953 119.233L38.9678 122.728L42.4633 122.713Z" fill="black"/>
<path d="M38.5546 24.8525L38.5399 21.357L35.0443 21.3717L35.0591 24.8673L38.5546 24.8525Z" fill="black"/>
<path d="M38.5694 28.3481L38.5546 24.8525L35.0591 24.8673L35.0738 28.3629L38.5694 28.3481Z" fill="black"/>
<path d="M38.6284 42.3303L38.6137 38.8348L35.1181 38.8495L35.1329 42.3451L38.6284 42.3303Z" fill="black"/>
<path d="M38.6579 49.3215L38.6432 45.8259L35.1476 45.8407L35.1624 49.3362L38.6579 49.3215Z" fill="black"/>
<path d="M38.6727 52.817L38.6579 49.3215L35.1624 49.3362L35.1771 52.8318L38.6727 52.817Z" fill="black"/>
<path d="M38.7022 59.8081L38.6874 56.3126L35.1919 56.3273L35.2066 59.8229L38.7022 59.8081Z" fill="black"/>
<path d="M38.7169 63.3037L38.7022 59.8081L35.2066 59.8229L35.2214 63.3185L38.7169 63.3037Z" fill="black"/>
<path d="M38.7317 66.7993L38.7169 63.3037L35.2214 63.3185L35.2361 66.814L38.7317 66.7993Z" fill="black"/>
<path d="M38.7465 70.2948L38.7317 66.7993L35.2361 66.814L35.2509 70.3096L38.7465 70.2948Z" fill="black"/>
<path d="M38.7612 73.7904L38.7465 70.2948L35.2509 70.3096L35.2656 73.8051L38.7612 73.7904Z" fill="black"/>
<path d="M38.776 77.2859L38.7612 73.7904L35.2656 73.8051L35.2804 77.3007L38.776 77.2859Z" fill="black"/>
<path d="M38.7907 80.7815L38.776 77.2859L35.2804 77.3007L35.2952 80.7963L38.7907 80.7815Z" fill="black"/>
<path d="M38.8055 84.2771L38.7907 80.7815L35.2952 80.7963L35.3099 84.2918L38.8055 84.2771Z" fill="black"/>
<path d="M38.8202 87.7726L38.8055 84.2771L35.3099 84.2918L35.3247 87.7874L38.8202 87.7726Z" fill="black"/>
<path d="M38.8497 94.7638L38.835 91.2682L35.3394 91.2829L35.3542 94.7785L38.8497 94.7638Z" fill="black"/>
<path d="M38.8792 101.755L38.8645 98.2593L35.3689 98.2741L35.3837 101.77L38.8792 101.755Z" fill="black"/>
<path d="M38.953 119.233L38.9383 115.737L35.4427 115.752L35.4575 119.247L38.953 119.233Z" fill="black"/>
<path d="M35.0001 10.8851L34.9853 7.38949L31.4897 7.40425L31.5045 10.8998L35.0001 10.8851Z" fill="black"/>
<path d="M35.0886 31.8584L35.0738 28.3629L31.5783 28.3776L31.593 31.8732L35.0886 31.8584Z" fill="black"/>
<path d="M35.1033 35.354L35.0886 31.8584L31.593 31.8732L31.6078 35.3687L35.1033 35.354Z" fill="black"/>
<path d="M35.1181 38.8495L35.1033 35.354L31.6078 35.3687L31.6225 38.8643L35.1181 38.8495Z" fill="black"/>
<path d="M35.1476 45.8407L35.1329 42.3451L31.6373 42.3599L31.652 45.8554L35.1476 45.8407Z" fill="black"/>
<path d="M35.1624 49.3362L35.1476 45.8407L31.652 45.8554L31.6668 49.351L35.1624 49.3362Z" fill="black"/>
<path d="M35.1771 52.8318L35.1624 49.3362L31.6668 49.351L31.6816 52.8465L35.1771 52.8318Z" fill="black"/>
<path d="M35.1919 56.3273L35.1771 52.8318L31.6816 52.8465L31.6963 56.3421L35.1919 56.3273Z" fill="black"/>
<path d="M35.2214 63.3185L35.2066 59.8229L31.7111 59.8377L31.7258 63.3332L35.2214 63.3185Z" fill="black"/>
<path d="M35.2361 66.814L35.2214 63.3185L31.7258 63.3332L31.7406 66.8288L35.2361 66.814Z" fill="black"/>
<path d="M35.2509 70.3096L35.2361 66.814L31.7406 66.8288L31.7553 70.3243L35.2509 70.3096Z" fill="black"/>
<path d="M35.2804 77.3007L35.2656 73.8051L31.7701 73.8199L31.7848 77.3155L35.2804 77.3007Z" fill="black"/>
<path d="M35.2952 80.7963L35.2804 77.3007L31.7848 77.3155L31.7996 80.811L35.2952 80.7963Z" fill="black"/>
<path d="M35.3394 91.2829L35.3247 87.7874L31.8291 87.8021L31.8439 91.2977L35.3394 91.2829Z" fill="black"/>
<path d="M35.3542 94.7785L35.3394 91.2829L31.8439 91.2977L31.8586 94.7933L35.3542 94.7785Z" fill="black"/>
<path d="M35.3984 105.265L35.3837 101.77L31.8881 101.784L31.9029 105.28L35.3984 105.265Z" fill="black"/>
<path d="M35.4279 112.256L35.4132 108.761L31.9176 108.776L31.9324 112.271L35.4279 112.256Z" fill="black"/>
<path d="M35.4427 115.752L35.4279 112.256L31.9324 112.271L31.9471 115.767L35.4427 115.752Z" fill="black"/>
<path d="M31.4897 7.40425L31.475 3.90869L27.9794 3.92344L27.9942 7.419L31.4897 7.40425Z" fill="black"/>
<path d="M31.534 17.8909L31.5193 14.3954L28.0237 14.4101L28.0385 17.9057L31.534 17.8909Z" fill="black"/>
<path d="M31.5635 24.8821L31.5488 21.3865L28.0532 21.4012L28.068 24.8968L31.5635 24.8821Z" fill="black"/>
<path d="M31.5783 28.3776L31.5635 24.8821L28.068 24.8968L28.0827 28.3924L31.5783 28.3776Z" fill="black"/>
<path d="M31.593 31.8732L31.5783 28.3776L28.0827 28.3924L28.0975 31.8879L31.593 31.8732Z" fill="black"/>
<path d="M31.6668 49.351L31.652 45.8554L28.1565 45.8702L28.1712 49.3657L31.6668 49.351Z" fill="black"/>
<path d="M31.7406 66.8288L31.7258 63.3332L28.2303 63.348L28.245 66.8435L31.7406 66.8288Z" fill="black"/>
<path d="M31.7553 70.3243L31.7406 66.8288L28.245 66.8435L28.2598 70.3391L31.7553 70.3243Z" fill="black"/>
<path d="M31.7701 73.8199L31.7553 70.3243L28.2598 70.3391L28.2745 73.8347L31.7701 73.8199Z" fill="black"/>
<path d="M31.7996 80.811L31.7848 77.3155L28.2893 77.3302L28.304 80.8258L31.7996 80.811Z" fill="black"/>
<path d="M31.8143 84.3066L31.7996 80.811L28.304 80.8258L28.3188 84.3213L31.8143 84.3066Z" fill="black"/>
<path d="M31.8291 87.8021L31.8143 84.3066L28.3188 84.3213L28.3335 87.8169L31.8291 87.8021Z" fill="black"/>
<path d="M31.8439 91.2977L31.8291 87.8021L28.3335 87.8169L28.3483 91.3125L31.8439 91.2977Z" fill="black"/>
<path d="M31.8734 98.2888L31.8586 94.7933L28.3631 94.808L28.3778 98.3036L31.8734 98.2888Z" fill="black"/>
<path d="M31.8881 101.784L31.8734 98.2888L28.3778 98.3036L28.3926 101.799L31.8881 101.784Z" fill="black"/>
<path d="M31.9029 105.28L31.8881 101.784L28.3926 101.799L28.4073 105.295L31.9029 105.28Z" fill="black"/>
<path d="M31.9176 108.776L31.9029 105.28L28.4073 105.295L28.4221 108.79L31.9176 108.776Z" fill="black"/>
<path d="M31.9324 112.271L31.9176 108.776L28.4221 108.79L28.4368 112.286L31.9324 112.271Z" fill="black"/>
<path d="M31.9471 115.767L31.9324 112.271L28.4368 112.286L28.4516 115.781L31.9471 115.767Z" fill="black"/>
<path d="M31.9766 122.758L31.9619 119.262L28.4663 119.277L28.4811 122.772L31.9766 122.758Z" fill="black"/>
<path d="M32.0061 129.749L31.9914 126.253L28.4958 126.268L28.5106 129.764L32.0061 129.749Z" fill="black"/>
<path d="M28.0975 31.8879L28.0827 28.3924L24.5872 28.4071L24.6019 31.9027L28.0975 31.8879Z" fill="black"/>
<path d="M28.1712 49.3657L28.1565 45.8702L24.6609 45.8849L24.6757 49.3805L28.1712 49.3657Z" fill="black"/>
<path d="M28.186 52.8613L28.1712 49.3657L24.6757 49.3805L24.6904 52.876L28.186 52.8613Z" fill="black"/>
<path d="M28.2008 56.3569L28.186 52.8613L24.6904 52.876L24.7052 56.3716L28.2008 56.3569Z" fill="black"/>
<path d="M28.2303 63.348L28.2155 59.8524L24.72 59.8672L24.7347 63.3627L28.2303 63.348Z" fill="black"/>
<path d="M28.2598 70.3391L28.245 66.8435L24.7495 66.8583L24.7642 70.3538L28.2598 70.3391Z" fill="black"/>
<path d="M28.2745 73.8347L28.2598 70.3391L24.7642 70.3538L24.779 73.8494L28.2745 73.8347Z" fill="black"/>
<path d="M28.2893 77.3302L28.2745 73.8347L24.779 73.8494L24.7937 77.345L28.2893 77.3302Z" fill="black"/>
<path d="M28.3335 87.8169L28.3188 84.3213L24.8232 84.3361L24.838 87.8317L28.3335 87.8169Z" fill="black"/>
<path d="M28.3631 94.808L28.3483 91.3125L24.8527 91.3272L24.8675 94.8228L28.3631 94.808Z" fill="black"/>
<path d="M28.3778 98.3036L28.3631 94.808L24.8675 94.8228L24.8822 98.3183L28.3778 98.3036Z" fill="black"/>
<path d="M28.3926 101.799L28.3778 98.3036L24.8822 98.3183L24.897 101.814L28.3926 101.799Z" fill="black"/>
<path d="M28.4516 115.781L28.4368 112.286L24.9413 112.301L24.956 115.796L28.4516 115.781Z" fill="black"/>
<path d="M28.4811 122.772L28.4663 119.277L24.9708 119.292L24.9855 122.787L28.4811 122.772Z" fill="black"/>
<path d="M28.5106 129.764L28.4958 126.268L25.0003 126.283L25.015 129.778L28.5106 129.764Z" fill="black"/>
<path d="M24.4839 3.93819L24.4691 0.442633L20.9736 0.457388L20.9883 3.95295L24.4839 3.93819Z" fill="black"/>
<path d="M24.4986 7.43375L24.4839 3.93819L20.9883 3.95295L21.0031 7.44851L24.4986 7.43375Z" fill="black"/>
<path d="M24.5134 10.9293L24.4986 7.43375L21.0031 7.44851L21.0178 10.9441L24.5134 10.9293Z" fill="black"/>
<path d="M24.5281 14.4249L24.5134 10.9293L21.0178 10.9441L21.0326 14.4396L24.5281 14.4249Z" fill="black"/>
<path d="M24.5429 17.9204L24.5281 14.4249L21.0326 14.4396L21.0473 17.9352L24.5429 17.9204Z" fill="black"/>
<path d="M24.5577 21.416L24.5429 17.9204L21.0473 17.9352L21.0621 21.4308L24.5577 21.416Z" fill="black"/>
<path d="M24.5724 24.9116L24.5577 21.416L21.0621 21.4308L21.0768 24.9263L24.5724 24.9116Z" fill="black"/>
<path d="M24.6167 35.3982L24.6019 31.9027L21.1063 31.9174L21.1211 35.413L24.6167 35.3982Z" fill="black"/>
<path d="M24.6314 38.8938L24.6167 35.3982L21.1211 35.413L21.1359 38.9086L24.6314 38.8938Z" fill="black"/>
<path d="M24.6609 45.8849L24.6462 42.3894L21.1506 42.4041L21.1654 45.8997L24.6609 45.8849Z" fill="black"/>
<path d="M24.7052 56.3716L24.6904 52.876L21.1949 52.8908L21.2096 56.3864L24.7052 56.3716Z" fill="black"/>
<path d="M24.72 59.8672L24.7052 56.3716L21.2096 56.3864L21.2244 59.8819L24.72 59.8672Z" fill="black"/>
<path d="M24.7347 63.3627L24.72 59.8672L21.2244 59.8819L21.2391 63.3775L24.7347 63.3627Z" fill="black"/>
<path d="M24.7495 66.8583L24.7347 63.3627L21.2391 63.3775L21.2539 66.873L24.7495 66.8583Z" fill="black"/>
<path d="M24.779 73.8494L24.7642 70.3538L21.2686 70.3686L21.2834 73.8642L24.779 73.8494Z" fill="black"/>
<path d="M24.8232 84.3361L24.8085 80.8405L21.3129 80.8553L21.3277 84.3508L24.8232 84.3361Z" fill="black"/>
<path d="M24.838 87.8317L24.8232 84.3361L21.3277 84.3508L21.3424 87.8464L24.838 87.8317Z" fill="black"/>
<path d="M24.8675 94.8228L24.8527 91.3272L21.3572 91.342L21.3719 94.8375L24.8675 94.8228Z" fill="black"/>
<path d="M24.897 101.814L24.8822 98.3183L21.3867 98.3331L21.4014 101.829L24.897 101.814Z" fill="black"/>
<path d="M24.9265 108.805L24.9118 105.309L21.4162 105.324L21.4309 108.82L24.9265 108.805Z" fill="black"/>
<path d="M24.956 115.796L24.9413 112.301L21.4457 112.315L21.4605 115.811L24.956 115.796Z" fill="black"/>
<path d="M24.9708 119.292L24.956 115.796L21.4605 115.811L21.4752 119.306L24.9708 119.292Z" fill="black"/>
<path d="M25.0003 126.283L24.9855 122.787L21.49 122.802L21.5047 126.298L25.0003 126.283Z" fill="black"/>
<path d="M20.9883 3.95295L20.9736 0.457388L17.478 0.472142L17.4928 3.9677L20.9883 3.95295Z" fill="black"/>
<path d="M21.0768 24.9263L21.0621 21.4308L17.5665 21.4455L17.5813 24.9411L21.0768 24.9263Z" fill="black"/>
<path d="M21.1211 35.413L21.1063 31.9174L17.6108 31.9322L17.6255 35.4277L21.1211 35.413Z" fill="black"/>
<path d="M21.1506 42.4041L21.1359 38.9086L17.6403 38.9233L17.6551 42.4189L21.1506 42.4041Z" fill="black"/>
<path d="M21.2096 56.3864L21.1949 52.8908L17.6993 52.9056L17.7141 56.4011L21.2096 56.3864Z" fill="black"/>
<path d="M21.2391 63.3775L21.2244 59.8819L17.7288 59.8967L17.7436 63.3922L21.2391 63.3775Z" fill="black"/>
<path d="M21.2539 66.873L21.2391 63.3775L17.7436 63.3922L17.7583 66.8878L21.2539 66.873Z" fill="black"/>
<path d="M21.2686 70.3686L21.2539 66.873L17.7583 66.8878L17.7731 70.3834L21.2686 70.3686Z" fill="black"/>
<path d="M21.2834 73.8642L21.2686 70.3686L17.7731 70.3834L17.7878 73.8789L21.2834 73.8642Z" fill="black"/>
<path d="M21.3129 80.8553L21.2982 77.3597L17.8026 77.3745L17.8174 80.87L21.3129 80.8553Z" fill="black"/>
<path d="M21.3277 84.3508L21.3129 80.8553L17.8174 80.87L17.8321 84.3656L21.3277 84.3508Z" fill="black"/>
<path d="M21.3867 98.3331L21.3719 94.8375L17.8764 94.8523L17.8911 98.3478L21.3867 98.3331Z" fill="black"/>
<path d="M21.4014 101.829L21.3867 98.3331L17.8911 98.3478L17.9059 101.843L21.4014 101.829Z" fill="black"/>
<path d="M21.4605 115.811L21.4457 112.315L17.9501 112.33L17.9649 115.826L21.4605 115.811Z" fill="black"/>
<path d="M21.5195 129.793L21.5047 126.298L18.0092 126.312L18.0239 129.808L21.5195 129.793Z" fill="black"/>
<path d="M17.4928 3.9677L17.478 0.472142L13.9824 0.486897L13.9972 3.98246L17.4928 3.9677Z" fill="black"/>
<path d="M17.5223 10.9588L17.5075 7.46326L14.0119 7.47802L14.0267 10.9736L17.5223 10.9588Z" fill="black"/>
<path d="M17.537 14.4544L17.5223 10.9588L14.0267 10.9736L14.0414 14.4691L17.537 14.4544Z" fill="black"/>
<path d="M17.5518 17.9499L17.537 14.4544L14.0414 14.4691L14.0562 17.9647L17.5518 17.9499Z" fill="black"/>
<path d="M17.5813 24.9411L17.5665 21.4455L14.071 21.4603L14.0857 24.9558L17.5813 24.9411Z" fill="black"/>
<path d="M17.6108 31.9322L17.596 28.4366L14.1005 28.4514L14.1152 31.9469L17.6108 31.9322Z" fill="black"/>
<path d="M17.6255 35.4277L17.6108 31.9322L14.1152 31.9469L14.13 35.4425L17.6255 35.4277Z" fill="black"/>
<path d="M17.6403 38.9233L17.6255 35.4277L14.13 35.4425L14.1447 38.9381L17.6403 38.9233Z" fill="black"/>
<path d="M17.6846 49.41L17.6698 45.9144L14.1742 45.9292L14.189 49.4247L17.6846 49.41Z" fill="black"/>
<path d="M17.6993 52.9056L17.6846 49.41L14.189 49.4247L14.2037 52.9203L17.6993 52.9056Z" fill="black"/>
<path d="M17.7288 59.8967L17.7141 56.4011L14.2185 56.4159L14.2333 59.9114L17.7288 59.8967Z" fill="black"/>
<path d="M17.7731 70.3834L17.7583 66.8878L14.2628 66.9025L14.2775 70.3981L17.7731 70.3834Z" fill="black"/>
<path d="M17.7878 73.8789L17.7731 70.3834L14.2775 70.3981L14.2923 73.8937L17.7878 73.8789Z" fill="black"/>
<path d="M17.8026 77.3745L17.7878 73.8789L14.2923 73.8937L14.307 77.3892L17.8026 77.3745Z" fill="black"/>
<path d="M17.8321 84.3656L17.8174 80.87L14.3218 80.8848L14.3365 84.3803L17.8321 84.3656Z" fill="black"/>
<path d="M17.8469 87.8612L17.8321 84.3656L14.3365 84.3803L14.3513 87.8759L17.8469 87.8612Z" fill="black"/>
<path d="M17.8616 91.3567L17.8469 87.8612L14.3513 87.8759L14.366 91.3715L17.8616 91.3567Z" fill="black"/>
<path d="M17.9059 101.843L17.8911 98.3478L14.3956 98.3626L14.4103 101.858L17.9059 101.843Z" fill="black"/>
<path d="M17.9206 105.339L17.9059 101.843L14.4103 101.858L14.4251 105.354L17.9206 105.339Z" fill="black"/>
<path d="M17.9354 108.835L17.9206 105.339L14.4251 105.354L14.4398 108.849L17.9354 108.835Z" fill="black"/>
<path d="M17.9501 112.33L17.9354 108.835L14.4398 108.849L14.4546 112.345L17.9501 112.33Z" fill="black"/>
<path d="M17.9649 115.826L17.9501 112.33L14.4546 112.345L14.4693 115.84L17.9649 115.826Z" fill="black"/>
<path d="M17.9944 122.817L17.9796 119.321L14.4841 119.336L14.4988 122.832L17.9944 122.817Z" fill="black"/>
<path d="M18.0092 126.312L17.9944 122.817L14.4988 122.832L14.5136 126.327L18.0092 126.312Z" fill="black"/>
<path d="M13.9972 3.98246L13.9824 0.486897L10.4869 0.501651L10.5016 3.99721L13.9972 3.98246Z" fill="black"/>
<path d="M14.0267 10.9736L14.0119 7.47802L10.5164 7.49277L10.5311 10.9883L14.0267 10.9736Z" fill="black"/>
<path d="M14.0414 14.4691L14.0267 10.9736L10.5311 10.9883L10.5459 14.4839L14.0414 14.4691Z" fill="black"/>
<path d="M14.0562 17.9647L14.0414 14.4691L10.5459 14.4839L10.5607 17.9795L14.0562 17.9647Z" fill="black"/>
<path d="M14.0857 24.9558L14.071 21.4603L10.5754 21.475L10.5902 24.9706L14.0857 24.9558Z" fill="black"/>
<path d="M14.13 35.4425L14.1152 31.9469L10.6197 31.9617L10.6344 35.4573L14.13 35.4425Z" fill="black"/>
<path d="M14.1447 38.9381L14.13 35.4425L10.6344 35.4573L10.6492 38.9528L14.1447 38.9381Z" fill="black"/>
<path d="M14.1595 42.4336L14.1447 38.9381L10.6492 38.9528L10.6639 42.4484L14.1595 42.4336Z" fill="black"/>
<path d="M14.1742 45.9292L14.1595 42.4336L10.6639 42.4484L10.6787 45.9439L14.1742 45.9292Z" fill="black"/>
<path d="M14.189 49.4247L14.1742 45.9292L10.6787 45.9439L10.6934 49.4395L14.189 49.4247Z" fill="black"/>
<path d="M14.2037 52.9203L14.189 49.4247L10.6934 49.4395L10.7082 52.9351L14.2037 52.9203Z" fill="black"/>
<path d="M14.2185 56.4159L14.2037 52.9203L10.7082 52.9351L10.723 56.4306L14.2185 56.4159Z" fill="black"/>
<path d="M14.2775 70.3981L14.2628 66.9025L10.7672 66.9173L10.782 70.4129L14.2775 70.3981Z" fill="black"/>
<path d="M14.3218 80.8848L14.307 77.3892L10.8115 77.404L10.8262 80.8996L14.3218 80.8848Z" fill="black"/>
<path d="M14.3365 84.3803L14.3218 80.8848L10.8262 80.8996L10.841 84.3951L14.3365 84.3803Z" fill="black"/>
<path d="M14.3956 98.3626L14.3808 94.867L10.8853 94.8818L10.9 98.3774L14.3956 98.3626Z" fill="black"/>
<path d="M14.4841 119.336L14.4693 115.84L10.9738 115.855L10.9885 119.351L14.4841 119.336Z" fill="black"/>
<path d="M14.4988 122.832L14.4841 119.336L10.9885 119.351L11.0033 122.846L14.4988 122.832Z" fill="black"/>
<path d="M10.5016 3.99721L10.4869 0.501651L6.99132 0.516406L7.00608 4.01197L10.5016 3.99721Z" fill="black"/>
<path d="M10.5311 10.9883L10.5164 7.49277L7.02083 7.50753L7.03558 11.0031L10.5311 10.9883Z" fill="black"/>
<path d="M10.5459 14.4839L10.5311 10.9883L7.03558 11.0031L7.05034 14.4986L10.5459 14.4839Z" fill="black"/>
<path d="M10.5607 17.9795L10.5459 14.4839L7.05034 14.4986L7.06509 17.9942L10.5607 17.9795Z" fill="black"/>
<path d="M10.5902 24.9706L10.5754 21.475L7.07985 21.4898L7.0946 24.9853L10.5902 24.9706Z" fill="black"/>
<path d="M10.6197 31.9617L10.6049 28.4661L7.10936 28.4809L7.12411 31.9765L10.6197 31.9617Z" fill="black"/>
<path d="M10.6639 42.4484L10.6492 38.9528L7.15362 38.9676L7.16837 42.4631L10.6639 42.4484Z" fill="black"/>
<path d="M10.7082 52.9351L10.6934 49.4395L7.19788 49.4542L7.21264 52.9498L10.7082 52.9351Z" fill="black"/>
<path d="M10.723 56.4306L10.7082 52.9351L7.21264 52.9498L7.22739 56.4454L10.723 56.4306Z" fill="black"/>
<path d="M10.7377 59.9262L10.723 56.4306L7.22739 56.4454L7.24215 59.9409L10.7377 59.9262Z" fill="black"/>
<path d="M10.7672 66.9173L10.7525 63.4217L7.2569 63.4365L7.27166 66.9321L10.7672 66.9173Z" fill="black"/>
<path d="M10.8115 77.404L10.7967 73.9084L7.30116 73.9232L7.31592 77.4187L10.8115 77.404Z" fill="black"/>
<path d="M10.841 84.3951L10.8262 80.8996L7.33067 80.9143L7.34543 84.4099L10.841 84.3951Z" fill="black"/>
<path d="M10.9 98.3774L10.8853 94.8818L7.38969 94.8965L7.40445 98.3921L10.9 98.3774Z" fill="black"/>
<path d="M10.9148 101.873L10.9 98.3774L7.40445 98.3921L7.4192 101.888L10.9148 101.873Z" fill="black"/>
<path d="M10.9295 105.368L10.9148 101.873L7.4192 101.888L7.43395 105.383L10.9295 105.368Z" fill="black"/>
<path d="M10.9885 119.351L10.9738 115.855L7.47822 115.87L7.49297 119.365L10.9885 119.351Z" fill="black"/>
<path d="M11.018 126.342L11.0033 122.846L7.50773 122.861L7.52248 126.357L11.018 126.342Z" fill="black"/>
<path d="M7.00608 4.01197L6.99132 0.516406L3.49575 0.53116L3.51051 4.02672L7.00608 4.01197Z" fill="black"/>
<path d="M7.0946 24.9853L7.07985 21.4898L3.58428 21.5045L3.59904 25.0001L7.0946 24.9853Z" fill="black"/>
<path d="M7.12411 31.9765L7.10936 28.4809L3.61379 28.4956L3.62854 31.9912L7.12411 31.9765Z" fill="black"/>
<path d="M7.13887 35.472L7.12411 31.9765L3.62854 31.9912L3.6433 35.4868L7.13887 35.472Z" fill="black"/>
<path d="M7.16837 42.4631L7.15362 38.9676L3.65805 38.9823L3.67281 42.4779L7.16837 42.4631Z" fill="black"/>
<path d="M7.21264 52.9498L7.19788 49.4542L3.70232 49.469L3.71707 52.9646L7.21264 52.9498Z" fill="black"/>
<path d="M7.33067 80.9143L7.31592 77.4187L3.82035 77.4335L3.83511 80.9291L7.33067 80.9143Z" fill="black"/>
<path d="M7.36018 87.9054L7.34543 84.4099L3.84986 84.4246L3.86462 87.9202L7.36018 87.9054Z" fill="black"/>
<path d="M7.38969 94.8965L7.37494 91.401L3.87937 91.4157L3.89412 94.9113L7.38969 94.8965Z" fill="black"/>
<path d="M7.43395 105.383L7.4192 101.888L3.92363 101.902L3.93839 105.398L7.43395 105.383Z" fill="black"/>
<path d="M7.49297 119.365L7.47822 115.87L3.98265 115.885L3.99741 119.38L7.49297 119.365Z" fill="black"/>
<path d="M7.50773 122.861L7.49297 119.365L3.99741 119.38L4.01216 122.876L7.50773 122.861Z" fill="black"/>
<path d="M7.52248 126.357L7.50773 122.861L4.01216 122.876L4.02691 126.371L7.52248 126.357Z" fill="black"/>
<path d="M3.51051 4.02672L3.49575 0.53116L0.000202608 0.545915L0.0149571 4.04148L3.51051 4.02672Z" fill="black"/>
<path d="M3.52526 7.52228L3.51051 4.02672L0.0149571 4.04148L0.0297115 7.53704L3.52526 7.52228Z" fill="black"/>
<path d="M3.54002 11.0178L3.52526 7.52228L0.0297115 7.53704L0.044466 11.0326L3.54002 11.0178Z" fill="black"/>
<path d="M3.55477 14.5134L3.54002 11.0178L0.044466 11.0326L0.0592204 14.5282L3.55477 14.5134Z" fill="black"/>
<path d="M3.56953 18.009L3.55477 14.5134L0.0592204 14.5282L0.0739749 18.0237L3.56953 18.009Z" fill="black"/>
<path d="M3.58428 21.5045L3.56953 18.009L0.0739749 18.0237L0.0887293 21.5193L3.58428 21.5045Z" fill="black"/>
<path d="M3.59904 25.0001L3.58428 21.5045L0.0887293 21.5193L0.103484 25.0148L3.59904 25.0001Z" fill="black"/>
<path d="M3.62854 31.9912L3.61379 28.4956L0.118238 28.5104L0.132993 32.006L3.62854 31.9912Z" fill="black"/>
<path d="M3.65805 38.9823L3.6433 35.4868L0.147747 35.5015L0.162502 38.9971L3.65805 38.9823Z" fill="black"/>
<path d="M3.67281 42.4779L3.65805 38.9823L0.162502 38.9971L0.177256 42.4926L3.67281 42.4779Z" fill="black"/>
<path d="M3.68756 45.9735L3.67281 42.4779L0.177256 42.4926L0.19201 45.9882L3.68756 45.9735Z" fill="black"/>
<path d="M3.71707 52.9646L3.70232 49.469L0.206765 49.4838L0.221519 52.9793L3.71707 52.9646Z" fill="black"/>
<path d="M3.74658 59.9557L3.73183 56.4601L0.236274 56.4749L0.251028 59.9704L3.74658 59.9557Z" fill="black"/>
<path d="M3.77609 66.9468L3.76133 63.4513L0.265783 63.466L0.280537 66.9616L3.77609 66.9468Z" fill="black"/>
<path d="M3.79084 70.4424L3.77609 66.9468L0.280537 66.9616L0.295292 70.4571L3.79084 70.4424Z" fill="black"/>
<path d="M3.83511 80.9291L3.82035 77.4335L0.324801 77.4482L0.339555 80.9438L3.83511 80.9291Z" fill="black"/>
<path d="M3.89412 94.9113L3.87937 91.4157L0.383818 91.4305L0.398573 94.9261L3.89412 94.9113Z" fill="black"/>
<path d="M3.95314 108.894L3.93839 105.398L0.442836 105.413L0.457591 108.908L3.95314 108.894Z" fill="black"/>
<path d="M3.9679 112.389L3.95314 108.894L0.457591 108.908L0.472345 112.404L3.9679 112.389Z" fill="black"/>
<path d="M3.98265 115.885L3.9679 112.389L0.472345 112.404L0.487099 115.899L3.98265 115.885Z" fill="black"/>
<path d="M4.01216 122.876L3.99741 119.38L0.501854 119.395L0.516608 122.891L4.01216 122.876Z" fill="black"/>
<path d="M4.02691 126.371L4.01216 122.876L0.516608 122.891L0.531363 126.386L4.02691 126.371Z" fill="black"/>
<path d="M4.04167 129.867L4.02691 126.371L0.531363 126.386L0.546117 129.882L4.04167 129.867Z" fill="black"/>
</svg>
