<svg width="310" height="569" viewBox="0 0 310 569" fill="none" xmlns="http://www.w3.org/2000/svg">
<g filter="url(#filter0_d_1594_27292)">
<path d="M306 529.76L306 237.89C306.001 236.051 305.322 234.257 304.057 232.757C302.792 231.257 301.004 230.127 298.941 229.522C294.717 228.29 291.055 225.98 288.463 222.914C285.87 219.848 284.477 216.178 284.477 212.414C284.477 208.65 285.87 204.98 288.463 201.914C291.055 198.848 294.717 196.538 298.941 195.306C300.996 194.702 302.778 193.576 304.043 192.084C305.307 190.592 305.991 188.806 306 186.973L306 31.2636C301.125 31.2636 296.297 30.4549 291.793 28.8837C287.288 27.3125 283.196 25.0096 279.749 22.1064C276.302 19.2032 273.567 15.7567 271.702 11.9636C269.837 8.17059 268.878 4.10533 268.878 0L41.1215 0C41.1224 4.10533 40.1629 8.17059 38.2978 11.9636C36.4326 15.7567 33.6985 19.2032 30.2513 22.1064C26.8042 25.0096 22.7116 27.3125 18.2074 28.8837C13.7031 30.4549 8.87546 31.2636 4 31.2636L4 186.973C3.99771 188.813 4.67639 190.607 5.94159 192.107C7.20679 193.607 8.99561 194.737 11.0593 195.341C15.2827 196.573 18.9453 198.883 21.5374 201.949C24.1296 205.015 25.5226 208.685 25.5226 212.449C25.5226 216.213 24.1296 219.883 21.5374 222.949C18.9453 226.015 15.2827 228.325 11.0593 229.557C9.00339 230.16 7.22037 231.286 5.95602 232.778C4.69171 234.271 4.0083 236.057 4 237.89L4 529.742C8.87488 529.742 13.702 530.551 18.2057 532.122C22.7096 533.692 26.8018 535.995 30.2489 538.897C33.6959 541.8 36.4303 545.246 38.2958 549.038C40.1613 552.831 41.1215 556.895 41.1215 561L268.878 561C268.884 552.713 272.797 544.767 279.758 538.909C286.719 533.05 296.158 529.76 306 529.76ZM273.713 210.93C273.958 210.917 274.204 210.946 274.434 211.016C274.665 211.087 274.877 211.196 275.056 211.337C275.234 211.479 275.377 211.65 275.474 211.839C275.572 212.029 275.622 212.234 275.622 212.44C275.622 212.647 275.572 212.851 275.474 213.041C275.377 213.231 275.234 213.402 275.056 213.543C274.877 213.685 274.665 213.794 274.434 213.864C274.204 213.934 273.958 213.964 273.713 213.951L252.907 213.951C252.662 213.964 252.417 213.934 252.186 213.864C251.955 213.794 251.744 213.685 251.565 213.543C251.386 213.402 251.244 213.231 251.146 213.041C251.049 212.851 250.998 212.647 250.998 212.44C250.998 212.234 251.049 212.029 251.146 211.839C251.244 211.65 251.386 211.479 251.565 211.337C251.744 211.196 251.955 211.087 252.186 211.016C252.417 210.946 252.662 210.917 252.907 210.93L273.713 210.93ZM238.079 210.93C238.324 210.917 238.57 210.946 238.801 211.016C239.031 211.087 239.243 211.196 239.422 211.337C239.6 211.479 239.743 211.65 239.84 211.839C239.938 212.029 239.988 212.234 239.988 212.44C239.988 212.647 239.938 212.851 239.84 213.041C239.743 213.231 239.6 213.402 239.422 213.543C239.243 213.685 239.031 213.794 238.801 213.864C238.57 213.934 238.324 213.964 238.079 213.951H217.273C216.919 213.951 216.572 213.863 216.277 213.697C215.983 213.532 215.753 213.296 215.617 213.02C215.481 212.745 215.446 212.441 215.515 212.148C215.584 211.856 215.755 211.587 216.006 211.376C216.171 211.234 216.368 211.121 216.586 211.045C216.804 210.968 217.037 210.929 217.273 210.93H238.079ZM202.445 210.93C202.69 210.917 202.936 210.946 203.167 211.016C203.397 211.087 203.609 211.196 203.788 211.337C203.966 211.479 204.109 211.65 204.206 211.839C204.304 212.029 204.354 212.234 204.354 212.44C204.354 212.647 204.304 212.851 204.206 213.041C204.109 213.231 203.966 213.402 203.788 213.543C203.609 213.685 203.397 213.794 203.167 213.864C202.936 213.934 202.69 213.964 202.445 213.951H181.639C181.285 213.951 180.938 213.863 180.643 213.697C180.349 213.532 180.119 213.296 179.983 213.02C179.847 212.745 179.812 212.441 179.881 212.148C179.95 211.856 180.121 211.587 180.372 211.376C180.537 211.234 180.734 211.121 180.952 211.045C181.17 210.968 181.403 210.929 181.639 210.93H202.445ZM166.811 210.93C167.288 210.93 167.745 211.089 168.082 211.373C168.42 211.657 168.609 212.042 168.609 212.443C168.61 212.642 168.563 212.839 168.472 213.022C168.381 213.205 168.247 213.371 168.079 213.51C167.912 213.65 167.715 213.762 167.497 213.837C167.28 213.913 167.047 213.951 166.811 213.951L146.005 213.951C145.531 213.949 145.077 213.79 144.741 213.508C144.406 213.225 144.217 212.843 144.215 212.443C144.218 212.044 144.408 211.661 144.743 211.378C145.078 211.095 145.531 210.934 146.005 210.93L166.811 210.93ZM131.177 210.93C131.422 210.917 131.668 210.946 131.899 211.016C132.13 211.087 132.341 211.196 132.52 211.337C132.699 211.479 132.841 211.65 132.939 211.839C133.036 212.029 133.086 212.234 133.086 212.44C133.086 212.647 133.036 212.851 132.939 213.041C132.841 213.231 132.699 213.402 132.52 213.543C132.341 213.685 132.13 213.794 131.899 213.864C131.668 213.934 131.422 213.964 131.177 213.951H110.371C110.017 213.951 109.67 213.863 109.376 213.697C109.081 213.532 108.851 213.296 108.715 213.02C108.579 212.745 108.544 212.441 108.613 212.148C108.683 211.856 108.853 211.587 109.104 211.376C109.269 211.234 109.466 211.121 109.684 211.045C109.902 210.968 110.136 210.929 110.371 210.93H131.177ZM39.1105 213.951C38.6349 213.951 38.1788 213.792 37.8419 213.51C37.5049 213.227 37.3148 212.844 37.313 212.443C37.3166 212.043 37.5071 211.659 37.8434 211.376C38.1797 211.093 38.6349 210.933 39.1105 210.93L59.9165 210.93C60.1614 210.917 60.4069 210.946 60.6378 211.016C60.8686 211.087 61.08 211.196 61.2588 211.337C61.4376 211.479 61.5801 211.65 61.6776 211.839C61.775 212.029 61.8252 212.234 61.8252 212.44C61.8252 212.647 61.775 212.851 61.6776 213.041C61.5801 213.231 61.4376 213.402 61.2588 213.543C61.08 213.685 60.8686 213.794 60.6378 213.864C60.4069 213.934 60.1614 213.964 59.9165 213.951L39.1105 213.951ZM74.7375 213.951C74.3831 213.951 74.0365 213.863 73.7416 213.697C73.4467 213.532 73.2169 213.296 73.0812 213.02C72.9455 212.745 72.91 212.441 72.9793 212.148C73.0486 211.856 73.2195 211.587 73.4703 211.376L73.5254 211.33C73.8559 211.073 74.2883 210.931 74.7375 210.93H95.5435C95.8985 210.93 96.2455 211.018 96.5408 211.184C96.836 211.35 97.0663 211.586 97.2026 211.862C97.3389 212.138 97.375 212.442 97.3065 212.735C97.238 213.029 97.0679 213.298 96.8176 213.51C96.5054 213.773 96.0879 213.928 95.6468 213.945C95.6125 213.948 95.5779 213.948 95.5435 213.945L74.7375 213.951Z" fill="white"/>
</g>
<defs>
<filter id="filter0_d_1594_27292" x="0" y="0" width="310" height="569" filterUnits="userSpaceOnUse" color-interpolation-filters="sRGB">
<feFlood flood-opacity="0" result="BackgroundImageFix"/>
<feColorMatrix in="SourceAlpha" type="matrix" values="0 0 0 0 0 0 0 0 0 0 0 0 0 0 0 0 0 0 127 0" result="hardAlpha"/>
<feOffset dy="4"/>
<feGaussianBlur stdDeviation="2"/>
<feComposite in2="hardAlpha" operator="out"/>
<feColorMatrix type="matrix" values="0 0 0 0 0.576417 0 0 0 0 0.573583 0 0 0 0 0.573583 0 0 0 0.25 0"/>
<feBlend mode="normal" in2="BackgroundImageFix" result="effect1_dropShadow_1594_27292"/>
<feBlend mode="normal" in="SourceGraphic" in2="effect1_dropShadow_1594_27292" result="shape"/>
</filter>
</defs>
</svg>
