<svg width="30" height="30" viewBox="0 0 30 30" fill="none" xmlns="http://www.w3.org/2000/svg">
<path d="M15 29.9708C23.2843 29.9708 30 23.2682 30 15C30 6.73191 23.2843 0.0292969 15 0.0292969C6.71572 0.0292969 0 6.73191 0 15C0 23.2682 6.71572 29.9708 15 29.9708Z" fill="#F0F0F0"/>
<path d="M14.9999 0.0292969C9.05295 0.0292969 3.91453 3.48339 1.48828 8.49104H28.5114C26.0852 3.48339 20.9467 0.0292969 14.9999 0.0292969Z" fill="#FF9811"/>
<path d="M14.9999 29.9705C20.9467 29.9705 26.0852 26.5164 28.5115 21.5088H1.48828C3.91453 26.5164 9.05295 29.9705 14.9999 29.9705Z" fill="#6DA544"/>
<path d="M14.9996 20.2074C17.8811 20.2074 20.217 17.876 20.217 15.0002C20.217 12.1243 17.8811 9.79297 14.9996 9.79297C12.1181 9.79297 9.78223 12.1243 9.78223 15.0002C9.78223 17.876 12.1181 20.2074 14.9996 20.2074Z" fill="#0052B4"/>
<path d="M15.0001 18.2541C16.801 18.2541 18.261 16.797 18.261 14.9996C18.261 13.2022 16.801 11.7451 15.0001 11.7451C13.1992 11.7451 11.7393 13.2022 11.7393 14.9996C11.7393 16.797 13.1992 18.2541 15.0001 18.2541Z" fill="#F0F0F0"/>
<path d="M15.0004 10.9844L16.0064 13.2615L18.4851 12.9924L17.0123 15.0004L18.4851 17.0084L16.0064 16.7393L15.0004 19.0164L13.9944 16.7393L11.5156 17.0084L12.9884 15.0004L11.5156 12.9924L13.9944 13.2615L15.0004 10.9844Z" fill="#0052B4"/>
</svg>
