<svg width="233" height="218" viewBox="0 0 233 218" fill="none" xmlns="http://www.w3.org/2000/svg">
<path d="M57.5397 90.8889L175.582 60.4843L136.387 175.906L57.5397 90.8889Z" fill="white" stroke="#699AF0" stroke-width="8"/>
<line y1="-0.5" x2="139.552" y2="-0.5" transform="matrix(0.224171 0.97455 -0.978909 0.204294 0 30)" stroke="url(#paint0_linear_2417_25889)"/>
<line y1="-0.5" x2="133.98" y2="-0.5" transform="matrix(0.221519 0.975156 -0.979415 0.201856 6.41699 32.292)" stroke="url(#paint1_linear_2417_25889)"/>
<line y1="-0.5" x2="124.685" y2="-0.5" transform="matrix(0.225166 0.97432 -0.978718 0.20521 13.6367 36.1123)" stroke="url(#paint2_linear_2417_25889)"/>
<line y1="-0.5" x2="117.995" y2="-0.5" transform="matrix(0.237932 0.971282 -0.976181 0.216958 20.8555 36.8765)" stroke="url(#paint3_linear_2417_25889)"/>
<line y1="-0.5" x2="110.193" y2="-0.5" transform="matrix(0.24022 0.970718 -0.97571 0.219066 28.0752 39.9326)" stroke="url(#paint4_linear_2417_25889)"/>
<line y1="-0.5" x2="106.292" y2="-0.5" transform="matrix(0.24149 0.970403 -0.975447 0.220236 34.4922 41.4604)" stroke="url(#paint5_linear_2417_25889)"/>
<line y1="-0.5" x2="101.65" y2="-0.5" transform="matrix(0.244626 0.969617 -0.974789 0.223127 41.7109 41.4604)" stroke="url(#paint6_linear_2417_25889)"/>
<line y1="-0.5" x2="91.838" y2="-0.5" transform="matrix(0.262028 0.96506 -0.970973 0.239188 48.1279 44.5171)" stroke="url(#paint7_linear_2417_25889)"/>
<line y1="-0.5" x2="84.7819" y2="-0.5" transform="matrix(0.264914 0.964272 -0.970312 0.241855 56.1494 46.0449)" stroke="url(#paint8_linear_2417_25889)"/>
<line y1="-0.5" x2="77.9457" y2="-0.5" transform="matrix(0.277857 0.960622 -0.967248 0.253831 63.3691 48.3369)" stroke="url(#paint9_linear_2417_25889)"/>
<line y1="-0.5" x2="71.6285" y2="-0.5" transform="matrix(0.279965 0.96001 -0.966734 0.255784 70.5879 49.8652)" stroke="url(#paint10_linear_2417_25889)"/>
<line y1="-0.5" x2="67.2398" y2="-0.5" transform="matrix(0.298238 0.954491 -0.962088 0.272738 77.0049 52.1572)" stroke="url(#paint11_linear_2417_25889)"/>
<line y1="-0.5" x2="60.6897" y2="-0.5" transform="matrix(0.290775 0.956791 -0.964026 0.265807 83.4229 54.4492)" stroke="url(#paint12_linear_2417_25889)"/>
<line y1="-0.5" x2="57.5325" y2="-0.5" transform="matrix(0.29279 0.956177 -0.963509 0.267677 89.8398 54.4492)" stroke="url(#paint13_linear_2417_25889)"/>
<line y1="-0.5" x2="48.792" y2="-0.5" transform="matrix(0.295919 0.955213 -0.962696 0.270583 97.0586 57.5059)" stroke="url(#paint14_linear_2417_25889)"/>
<line y1="-0.5" x2="44.6699" y2="-0.5" transform="matrix(0.287312 0.957837 -0.964906 0.262595 103.476 59.0337)" stroke="url(#paint15_linear_2417_25889)"/>
<line y1="-0.5" x2="38.5975" y2="-0.5" transform="matrix(0.311732 0.95017 -0.958442 0.285289 110.695 60.562)" stroke="url(#paint16_linear_2417_25889)"/>
<line y1="-0.5" x2="28.1597" y2="-0.5" transform="matrix(0.313339 0.949641 -0.957995 0.286785 118.717 63.6182)" stroke="url(#paint17_linear_2417_25889)"/>
<line y1="-0.5" x2="22.335" y2="-0.5" transform="matrix(0.287312 0.957837 -0.964906 0.262595 125.134 65.146)" stroke="url(#paint18_linear_2417_25889)"/>
<line y1="-0.5" x2="19.1775" y2="-0.5" transform="matrix(0.29279 0.956177 -0.963509 0.267677 132.353 65.9102)" stroke="url(#paint19_linear_2417_25889)"/>
<line y1="-0.5" x2="10.438" y2="-0.5" transform="matrix(0.307393 0.951583 -0.959635 0.28125 139.572 68.9663)" stroke="url(#paint20_linear_2417_25889)"/>
<line y1="-0.5" x2="9.31242" y2="-0.5" transform="matrix(0.430682 0.902504 -0.917681 0.397318 143.583 68.9663)" stroke="url(#paint21_linear_2417_25889)"/>
<line y1="-0.5" x2="1.10779" y2="-0.5" transform="matrix(0.724091 0.689704 -0.724091 0.689704 149.198 72.0225)" stroke="url(#paint22_linear_2417_25889)"/>
<defs>
<linearGradient id="paint0_linear_2417_25889" x1="69.7758" y1="0" x2="69.7758" y2="1" gradientUnits="userSpaceOnUse">
<stop stop-color="#1273EB"/>
<stop offset="0.03" stop-color="white"/>
</linearGradient>
<linearGradient id="paint1_linear_2417_25889" x1="66.9901" y1="0" x2="66.9901" y2="1" gradientUnits="userSpaceOnUse">
<stop stop-color="#1273EB"/>
<stop offset="0.03" stop-color="white"/>
</linearGradient>
<linearGradient id="paint2_linear_2417_25889" x1="62.3425" y1="0" x2="62.3425" y2="1" gradientUnits="userSpaceOnUse">
<stop stop-color="#1273EB"/>
<stop offset="0.03" stop-color="white"/>
</linearGradient>
<linearGradient id="paint3_linear_2417_25889" x1="58.9977" y1="0" x2="58.9977" y2="1" gradientUnits="userSpaceOnUse">
<stop stop-color="#1273EB"/>
<stop offset="0.03" stop-color="white"/>
</linearGradient>
<linearGradient id="paint4_linear_2417_25889" x1="55.0965" y1="0" x2="55.0965" y2="1" gradientUnits="userSpaceOnUse">
<stop stop-color="#1273EB"/>
<stop offset="0.03" stop-color="white"/>
</linearGradient>
<linearGradient id="paint5_linear_2417_25889" x1="53.146" y1="0" x2="53.146" y2="1" gradientUnits="userSpaceOnUse">
<stop stop-color="#1273EB"/>
<stop offset="0.03" stop-color="white"/>
</linearGradient>
<linearGradient id="paint6_linear_2417_25889" x1="50.8251" y1="0" x2="50.8251" y2="1" gradientUnits="userSpaceOnUse">
<stop stop-color="#1273EB"/>
<stop offset="0.03" stop-color="white"/>
</linearGradient>
<linearGradient id="paint7_linear_2417_25889" x1="45.919" y1="0" x2="45.919" y2="1" gradientUnits="userSpaceOnUse">
<stop stop-color="#1273EB"/>
<stop offset="0.03" stop-color="white"/>
</linearGradient>
<linearGradient id="paint8_linear_2417_25889" x1="42.3909" y1="0" x2="42.3909" y2="1" gradientUnits="userSpaceOnUse">
<stop stop-color="#1273EB"/>
<stop offset="0.03" stop-color="white"/>
</linearGradient>
<linearGradient id="paint9_linear_2417_25889" x1="38.9729" y1="0" x2="38.9729" y2="1" gradientUnits="userSpaceOnUse">
<stop stop-color="#1273EB"/>
<stop offset="0.03" stop-color="white"/>
</linearGradient>
<linearGradient id="paint10_linear_2417_25889" x1="35.8142" y1="0" x2="35.8142" y2="1" gradientUnits="userSpaceOnUse">
<stop stop-color="#1273EB"/>
<stop offset="0.03" stop-color="white"/>
</linearGradient>
<linearGradient id="paint11_linear_2417_25889" x1="33.6199" y1="0" x2="33.6199" y2="1" gradientUnits="userSpaceOnUse">
<stop stop-color="#1273EB"/>
<stop offset="0.03" stop-color="white"/>
</linearGradient>
<linearGradient id="paint12_linear_2417_25889" x1="30.3449" y1="0" x2="30.3449" y2="1" gradientUnits="userSpaceOnUse">
<stop stop-color="#1273EB"/>
<stop offset="0.03" stop-color="white"/>
</linearGradient>
<linearGradient id="paint13_linear_2417_25889" x1="28.7662" y1="0" x2="28.7662" y2="1" gradientUnits="userSpaceOnUse">
<stop stop-color="#1273EB"/>
<stop offset="0.03" stop-color="white"/>
</linearGradient>
<linearGradient id="paint14_linear_2417_25889" x1="24.396" y1="0" x2="24.396" y2="1" gradientUnits="userSpaceOnUse">
<stop stop-color="#1273EB"/>
<stop offset="0.03" stop-color="white"/>
</linearGradient>
<linearGradient id="paint15_linear_2417_25889" x1="22.335" y1="0" x2="22.335" y2="1" gradientUnits="userSpaceOnUse">
<stop stop-color="#1273EB"/>
<stop offset="0.03" stop-color="white"/>
</linearGradient>
<linearGradient id="paint16_linear_2417_25889" x1="19.2987" y1="0" x2="19.2987" y2="1" gradientUnits="userSpaceOnUse">
<stop stop-color="#1273EB"/>
<stop offset="0.03" stop-color="white"/>
</linearGradient>
<linearGradient id="paint17_linear_2417_25889" x1="14.0798" y1="0" x2="14.0798" y2="1" gradientUnits="userSpaceOnUse">
<stop stop-color="#1273EB"/>
<stop offset="0.03" stop-color="white"/>
</linearGradient>
<linearGradient id="paint18_linear_2417_25889" x1="11.1675" y1="0" x2="11.1675" y2="1" gradientUnits="userSpaceOnUse">
<stop stop-color="#1273EB"/>
<stop offset="0.03" stop-color="white"/>
</linearGradient>
<linearGradient id="paint19_linear_2417_25889" x1="9.58875" y1="0" x2="9.58875" y2="1" gradientUnits="userSpaceOnUse">
<stop stop-color="#1273EB"/>
<stop offset="0.03" stop-color="white"/>
</linearGradient>
<linearGradient id="paint20_linear_2417_25889" x1="5.21898" y1="0" x2="5.21898" y2="1" gradientUnits="userSpaceOnUse">
<stop stop-color="#1273EB"/>
<stop offset="0.03" stop-color="white"/>
</linearGradient>
<linearGradient id="paint21_linear_2417_25889" x1="4.65621" y1="0" x2="4.65621" y2="1" gradientUnits="userSpaceOnUse">
<stop stop-color="#1273EB"/>
<stop offset="0.03" stop-color="white"/>
</linearGradient>
<linearGradient id="paint22_linear_2417_25889" x1="0.553893" y1="0" x2="0.553893" y2="1" gradientUnits="userSpaceOnUse">
<stop stop-color="#1273EB"/>
<stop offset="0.03" stop-color="white"/>
</linearGradient>
</defs>
</svg>
