<svg width="197" height="170" viewBox="0 0 197 170" fill="none" xmlns="http://www.w3.org/2000/svg">
<line x1="59.2924" y1="1.37062" x2="90.8225" y2="6.83443" stroke="#7479EE"/>
<line x1="45.8822" y1="2.59914" x2="105.009" y2="12.8452" stroke="#7479EE"/>
<line x1="36.2377" y1="5.49465" x2="116.073" y2="19.3291" stroke="#7479EE"/>
<line x1="26.5151" y1="8.89504" x2="122.111" y2="25.4607" stroke="#7479EE"/>
<line x1="20.5424" y1="13.939" x2="127.029" y2="32.392" stroke="#7479EE"/>
<line x1="15.4057" y1="20.1538" x2="130.755" y2="40.1426" stroke="#7479EE"/>
<line x1="10.3705" y1="25.8775" x2="135.54" y2="47.568" stroke="#7479EE"/>
<line x1="8.1635" y1="32.5991" x2="134.38" y2="54.471" stroke="#7479EE"/>
<line x1="3.94084" y1="39.48" x2="133.077" y2="61.8579" stroke="#7479EE"/>
<line x1="3.63225" y1="47.0376" x2="131.818" y2="69.2508" stroke="#7479EE"/>
<line x1="1.28068" y1="54.7495" x2="130.451" y2="77.1333" stroke="#7479EE"/>
<line x1="0.999435" y1="62.312" x2="127.181" y2="84.1779" stroke="#7479EE"/>
<line x1="1.87053" y1="69.0601" x2="124.085" y2="90.2385" stroke="#7479EE"/>
<line x1="3.80412" y1="75.4839" x2="121.094" y2="95.8089" stroke="#7479EE"/>
<line x1="4.84709" y1="81.2476" x2="115.22" y2="100.374" stroke="#7479EE"/>
<line x1="7.93303" y1="86.857" x2="112.395" y2="104.959" stroke="#7479EE"/>
<line x1="12.0033" y1="92.6362" x2="107.599" y2="109.202" stroke="#7479EE"/>
<line x1="15.0893" y1="98.2456" x2="99.8493" y2="112.934" stroke="#7479EE"/>
<line x1="23.101" y1="104.709" x2="89.1465" y2="116.153" stroke="#7479EE"/>
<line x1="35.1518" y1="111.365" x2="79.5019" y2="119.05" stroke="#7479EE"/>
<line x1="43.4291" y1="116.35" x2="69.0473" y2="120.789" stroke="#7479EE"/>
<circle cx="132" cy="105" r="62.5" fill="white" stroke="#7479EE" stroke-width="5"/>
</svg>
