<svg width="220" height="102" viewBox="0 0 220 102" fill="none" xmlns="http://www.w3.org/2000/svg">
<g filter="url(#filter0_d_2420_27622)">
<path d="M0 20C0 8.9543 8.95431 0 20 0H198C209.046 0 218 8.95431 218 20V74C218 85.0457 209.046 94 198 94H20C8.9543 94 0 85.0457 0 74V20Z" fill="black"/>
<path opacity="0.7" d="M40.0381 70.3454C40.0381 70.3454 30.7288 67.0034 25 80L194 78.886V54.0067C194 54.0067 187.555 87.798 176.814 64.7754C166.072 41.7528 156.859 35.6134 152.466 33.2121C135.695 24.0456 141.725 69.974 128.119 67.0034C114.513 64.0327 112.364 60.3194 99.4746 59.948C86.5847 59.5767 88.0169 71.8307 72.9788 75.9153C57.9407 80 40.0381 70.3454 40.0381 70.3454Z" fill="url(#paint0_linear_2420_27622)"/>
<path d="M31.436 15.636L29.012 24H27.788L25.844 17.268L23.828 24L22.616 24.012L20.276 15.636H21.44L23.264 22.728L25.28 15.636H26.504L28.424 22.704L30.26 15.636H31.436ZM38.631 20.46C38.631 20.668 38.619 20.888 38.595 21.12H33.339C33.379 21.768 33.599 22.276 33.999 22.644C34.407 23.004 34.899 23.184 35.475 23.184C35.947 23.184 36.339 23.076 36.651 22.86C36.971 22.636 37.195 22.34 37.323 21.972H38.499C38.323 22.604 37.971 23.12 37.443 23.52C36.915 23.912 36.259 24.108 35.475 24.108C34.851 24.108 34.291 23.968 33.795 23.688C33.307 23.408 32.923 23.012 32.643 22.5C32.363 21.98 32.223 21.38 32.223 20.7C32.223 20.02 32.359 19.424 32.631 18.912C32.903 18.4 33.283 18.008 33.771 17.736C34.267 17.456 34.835 17.316 35.475 17.316C36.099 17.316 36.651 17.452 37.131 17.724C37.611 17.996 37.979 18.372 38.235 18.852C38.499 19.324 38.631 19.86 38.631 20.46ZM37.503 20.232C37.503 19.816 37.411 19.46 37.227 19.164C37.043 18.86 36.791 18.632 36.471 18.48C36.159 18.32 35.811 18.24 35.427 18.24C34.875 18.24 34.403 18.416 34.011 18.768C33.627 19.12 33.407 19.608 33.351 20.232H37.503ZM46.0724 20.46C46.0724 20.668 46.0604 20.888 46.0364 21.12H40.7804C40.8204 21.768 41.0404 22.276 41.4404 22.644C41.8484 23.004 42.3404 23.184 42.9164 23.184C43.3884 23.184 43.7804 23.076 44.0924 22.86C44.4124 22.636 44.6364 22.34 44.7644 21.972H45.9404C45.7644 22.604 45.4124 23.12 44.8844 23.52C44.3564 23.912 43.7004 24.108 42.9164 24.108C42.2924 24.108 41.7324 23.968 41.2364 23.688C40.7484 23.408 40.3644 23.012 40.0844 22.5C39.8044 21.98 39.6644 21.38 39.6644 20.7C39.6644 20.02 39.8004 19.424 40.0724 18.912C40.3444 18.4 40.7244 18.008 41.2124 17.736C41.7084 17.456 42.2764 17.316 42.9164 17.316C43.5404 17.316 44.0924 17.452 44.5724 17.724C45.0524 17.996 45.4204 18.372 45.6764 18.852C45.9404 19.324 46.0724 19.86 46.0724 20.46ZM44.9444 20.232C44.9444 19.816 44.8524 19.46 44.6684 19.164C44.4844 18.86 44.2324 18.632 43.9124 18.48C43.6004 18.32 43.2524 18.24 42.8684 18.24C42.3164 18.24 41.8444 18.416 41.4524 18.768C41.0684 19.12 40.8484 19.608 40.7924 20.232H44.9444ZM51.1858 24L48.6058 21.096V24H47.5138V15.12H48.6058V20.34L51.1378 17.424H52.6618L49.5658 20.7L52.6738 24H51.1858ZM59.6896 20.46C59.6896 20.668 59.6776 20.888 59.6536 21.12H54.3976C54.4376 21.768 54.6576 22.276 55.0576 22.644C55.4656 23.004 55.9576 23.184 56.5336 23.184C57.0056 23.184 57.3976 23.076 57.7096 22.86C58.0296 22.636 58.2536 22.34 58.3816 21.972H59.5576C59.3816 22.604 59.0296 23.12 58.5016 23.52C57.9736 23.912 57.3176 24.108 56.5336 24.108C55.9096 24.108 55.3496 23.968 54.8536 23.688C54.3656 23.408 53.9816 23.012 53.7016 22.5C53.4216 21.98 53.2816 21.38 53.2816 20.7C53.2816 20.02 53.4176 19.424 53.6896 18.912C53.9616 18.4 54.3416 18.008 54.8296 17.736C55.3256 17.456 55.8936 17.316 56.5336 17.316C57.1576 17.316 57.7096 17.452 58.1896 17.724C58.6696 17.996 59.0376 18.372 59.2936 18.852C59.5576 19.324 59.6896 19.86 59.6896 20.46ZM58.5616 20.232C58.5616 19.816 58.4696 19.46 58.2856 19.164C58.1016 18.86 57.8496 18.632 57.5296 18.48C57.2176 18.32 56.8696 18.24 56.4856 18.24C55.9336 18.24 55.4616 18.416 55.0696 18.768C54.6856 19.12 54.4656 19.608 54.4096 20.232H58.5616ZM64.335 17.304C65.135 17.304 65.783 17.548 66.279 18.036C66.775 18.516 67.023 19.212 67.023 20.124V24H65.943V20.28C65.943 19.624 65.779 19.124 65.451 18.78C65.123 18.428 64.675 18.252 64.107 18.252C63.531 18.252 63.071 18.432 62.727 18.792C62.391 19.152 62.223 19.676 62.223 20.364V24H61.131V17.424H62.223V18.36C62.439 18.024 62.731 17.764 63.099 17.58C63.475 17.396 63.887 17.304 64.335 17.304ZM68.3988 20.688C68.3988 20.016 68.5348 19.428 68.8068 18.924C69.0788 18.412 69.4508 18.016 69.9228 17.736C70.4028 17.456 70.9388 17.316 71.5308 17.316C72.0428 17.316 72.5188 17.436 72.9588 17.676C73.3988 17.908 73.7348 18.216 73.9668 18.6V15.12H75.0708V24H73.9668V22.764C73.7508 23.156 73.4308 23.48 73.0068 23.736C72.5828 23.984 72.0868 24.108 71.5188 24.108C70.9348 24.108 70.4028 23.964 69.9228 23.676C69.4508 23.388 69.0788 22.984 68.8068 22.464C68.5348 21.944 68.3988 21.352 68.3988 20.688ZM73.9668 20.7C73.9668 20.204 73.8668 19.772 73.6668 19.404C73.4668 19.036 73.1948 18.756 72.8508 18.564C72.5148 18.364 72.1428 18.264 71.7348 18.264C71.3268 18.264 70.9548 18.36 70.6188 18.552C70.2828 18.744 70.0148 19.024 69.8148 19.392C69.6148 19.76 69.5148 20.192 69.5148 20.688C69.5148 21.192 69.6148 21.632 69.8148 22.008C70.0148 22.376 70.2828 22.66 70.6188 22.86C70.9548 23.052 71.3268 23.148 71.7348 23.148C72.1428 23.148 72.5148 23.052 72.8508 22.86C73.1948 22.66 73.4668 22.376 73.6668 22.008C73.8668 21.632 73.9668 21.196 73.9668 20.7ZM82.8274 17.316C83.3954 17.316 83.8914 17.44 84.3154 17.688C84.7474 17.936 85.0674 18.248 85.2754 18.624V17.424H86.3794V24.144C86.3794 24.744 86.2514 25.276 85.9954 25.74C85.7394 26.212 85.3714 26.58 84.8914 26.844C84.4194 27.108 83.8674 27.24 83.2354 27.24C82.3714 27.24 81.6514 27.036 81.0754 26.628C80.4994 26.22 80.1594 25.664 80.0554 24.96H81.1354C81.2554 25.36 81.5034 25.68 81.8794 25.92C82.2554 26.168 82.7074 26.292 83.2354 26.292C83.8354 26.292 84.3234 26.104 84.6994 25.728C85.0834 25.352 85.2754 24.824 85.2754 24.144V22.764C85.0594 23.148 84.7394 23.468 84.3154 23.724C83.8914 23.98 83.3954 24.108 82.8274 24.108C82.2434 24.108 81.7114 23.964 81.2314 23.676C80.7594 23.388 80.3874 22.984 80.1154 22.464C79.8434 21.944 79.7074 21.352 79.7074 20.688C79.7074 20.016 79.8434 19.428 80.1154 18.924C80.3874 18.412 80.7594 18.016 81.2314 17.736C81.7114 17.456 82.2434 17.316 82.8274 17.316ZM85.2754 20.7C85.2754 20.204 85.1754 19.772 84.9754 19.404C84.7754 19.036 84.5034 18.756 84.1594 18.564C83.8234 18.364 83.4514 18.264 83.0434 18.264C82.6354 18.264 82.2634 18.36 81.9274 18.552C81.5914 18.744 81.3234 19.024 81.1234 19.392C80.9234 19.76 80.8234 20.192 80.8234 20.688C80.8234 21.192 80.9234 21.632 81.1234 22.008C81.3234 22.376 81.5914 22.66 81.9274 22.86C82.2634 23.052 82.6354 23.148 83.0434 23.148C83.4514 23.148 83.8234 23.052 84.1594 22.86C84.5034 22.66 84.7754 22.376 84.9754 22.008C85.1754 21.632 85.2754 21.196 85.2754 20.7ZM94.2248 20.46C94.2248 20.668 94.2128 20.888 94.1888 21.12H88.9328C88.9728 21.768 89.1928 22.276 89.5928 22.644C90.0008 23.004 90.4928 23.184 91.0688 23.184C91.5408 23.184 91.9328 23.076 92.2448 22.86C92.5648 22.636 92.7888 22.34 92.9168 21.972H94.0928C93.9168 22.604 93.5648 23.12 93.0368 23.52C92.5088 23.912 91.8528 24.108 91.0688 24.108C90.4448 24.108 89.8848 23.968 89.3888 23.688C88.9008 23.408 88.5168 23.012 88.2368 22.5C87.9568 21.98 87.8168 21.38 87.8168 20.7C87.8168 20.02 87.9528 19.424 88.2248 18.912C88.4968 18.4 88.8768 18.008 89.3648 17.736C89.8608 17.456 90.4288 17.316 91.0688 17.316C91.6928 17.316 92.2448 17.452 92.7248 17.724C93.2048 17.996 93.5728 18.372 93.8288 18.852C94.0928 19.324 94.2248 19.86 94.2248 20.46ZM93.0968 20.232C93.0968 19.816 93.0048 19.46 92.8208 19.164C92.6368 18.86 92.3848 18.632 92.0648 18.48C91.7528 18.32 91.4048 18.24 91.0208 18.24C90.4688 18.24 89.9968 18.416 89.6048 18.768C89.2208 19.12 89.0008 19.608 88.9448 20.232H93.0968ZM96.9982 18.324V22.2C96.9982 22.52 97.0662 22.748 97.2022 22.884C97.3382 23.012 97.5742 23.076 97.9102 23.076H98.7142V24H97.7302C97.1222 24 96.6662 23.86 96.3622 23.58C96.0582 23.3 95.9062 22.84 95.9062 22.2V18.324H95.0542V17.424H95.9062V15.768H96.9982V17.424H98.7142V18.324H96.9982ZM102.829 20.688C102.829 20.016 102.965 19.428 103.237 18.924C103.509 18.412 103.881 18.016 104.353 17.736C104.833 17.456 105.365 17.316 105.949 17.316C106.525 17.316 107.025 17.44 107.449 17.688C107.873 17.936 108.189 18.248 108.397 18.624V17.424H109.501V24H108.397V22.776C108.181 23.16 107.857 23.48 107.425 23.736C107.001 23.984 106.505 24.108 105.937 24.108C105.353 24.108 104.825 23.964 104.353 23.676C103.881 23.388 103.509 22.984 103.237 22.464C102.965 21.944 102.829 21.352 102.829 20.688ZM108.397 20.7C108.397 20.204 108.297 19.772 108.097 19.404C107.897 19.036 107.625 18.756 107.281 18.564C106.945 18.364 106.573 18.264 106.165 18.264C105.757 18.264 105.385 18.36 105.049 18.552C104.713 18.744 104.445 19.024 104.245 19.392C104.045 19.76 103.945 20.192 103.945 20.688C103.945 21.192 104.045 21.632 104.245 22.008C104.445 22.376 104.713 22.66 105.049 22.86C105.385 23.052 105.757 23.148 106.165 23.148C106.573 23.148 106.945 23.052 107.281 22.86C107.625 22.66 107.897 22.376 108.097 22.008C108.297 21.632 108.397 21.196 108.397 20.7ZM120.106 17.424L118.054 24H116.926L115.342 18.78L113.758 24H112.63L110.566 17.424H111.682L113.194 22.944L114.826 17.424H115.942L117.538 22.956L119.026 17.424H120.106ZM120.782 20.688C120.782 20.016 120.918 19.428 121.19 18.924C121.462 18.412 121.834 18.016 122.306 17.736C122.786 17.456 123.318 17.316 123.902 17.316C124.478 17.316 124.978 17.44 125.402 17.688C125.826 17.936 126.142 18.248 126.35 18.624V17.424H127.454V24H126.35V22.776C126.134 23.16 125.81 23.48 125.378 23.736C124.954 23.984 124.458 24.108 123.89 24.108C123.306 24.108 122.778 23.964 122.306 23.676C121.834 23.388 121.462 22.984 121.19 22.464C120.918 21.944 120.782 21.352 120.782 20.688ZM126.35 20.7C126.35 20.204 126.25 19.772 126.05 19.404C125.85 19.036 125.578 18.756 125.234 18.564C124.898 18.364 124.526 18.264 124.118 18.264C123.71 18.264 123.338 18.36 123.002 18.552C122.666 18.744 122.398 19.024 122.198 19.392C121.998 19.76 121.898 20.192 121.898 20.688C121.898 21.192 121.998 21.632 122.198 22.008C122.398 22.376 122.666 22.66 123.002 22.86C123.338 23.052 123.71 23.148 124.118 23.148C124.526 23.148 124.898 23.052 125.234 22.86C125.578 22.66 125.85 22.376 126.05 22.008C126.25 21.632 126.35 21.196 126.35 20.7ZM134.963 17.424L131.003 27.096H129.875L131.171 23.928L128.519 17.424H129.731L131.795 22.752L133.835 17.424H134.963Z" fill="white"/>
<path d="M155.699 22.2102V21.3409L159.534 15.2727H160.165V16.6193H159.739L156.841 21.2045V21.2727H162.006V22.2102H155.699ZM159.807 24V21.946V21.5412V15.2727H160.812V24H159.807ZM168.051 22.3636V21.9034C168.051 21.5852 168.117 21.294 168.248 21.0298C168.381 20.7628 168.574 20.5497 168.827 20.3906C169.083 20.2287 169.392 20.1477 169.756 20.1477C170.125 20.1477 170.435 20.2287 170.685 20.3906C170.935 20.5497 171.124 20.7628 171.252 21.0298C171.38 21.294 171.444 21.5852 171.444 21.9034V22.3636C171.444 22.6818 171.378 22.9744 171.248 23.2415C171.12 23.5057 170.929 23.7187 170.676 23.8807C170.426 24.0398 170.12 24.1193 169.756 24.1193C169.387 24.1193 169.076 24.0398 168.823 23.8807C168.57 23.7187 168.378 23.5057 168.248 23.2415C168.117 22.9744 168.051 22.6818 168.051 22.3636ZM168.921 21.9034V22.3636C168.921 22.6278 168.983 22.8651 169.108 23.0753C169.233 23.2827 169.449 23.3864 169.756 23.3864C170.054 23.3864 170.265 23.2827 170.387 23.0753C170.512 22.8651 170.574 22.6278 170.574 22.3636V21.9034C170.574 21.6392 170.515 21.4034 170.395 21.196C170.276 20.9858 170.063 20.8807 169.756 20.8807C169.458 20.8807 169.243 20.9858 169.113 21.196C168.985 21.4034 168.921 21.6392 168.921 21.9034ZM163.705 17.3693V16.9091C163.705 16.5909 163.77 16.2997 163.901 16.0355C164.034 15.7685 164.228 15.5554 164.48 15.3963C164.736 15.2344 165.046 15.1534 165.409 15.1534C165.779 15.1534 166.088 15.2344 166.338 15.3963C166.588 15.5554 166.777 15.7685 166.905 16.0355C167.033 16.2997 167.097 16.5909 167.097 16.9091V17.3693C167.097 17.6875 167.032 17.9801 166.901 18.2472C166.773 18.5114 166.583 18.7244 166.33 18.8864C166.08 19.0455 165.773 19.125 165.409 19.125C165.04 19.125 164.729 19.0455 164.476 18.8864C164.223 18.7244 164.032 18.5114 163.901 18.2472C163.77 17.9801 163.705 17.6875 163.705 17.3693ZM164.574 16.9091V17.3693C164.574 17.6335 164.637 17.8707 164.762 18.081C164.887 18.2884 165.103 18.392 165.409 18.392C165.708 18.392 165.918 18.2884 166.04 18.081C166.165 17.8707 166.228 17.6335 166.228 17.3693V16.9091C166.228 16.6449 166.168 16.4091 166.049 16.2017C165.929 15.9915 165.716 15.8864 165.409 15.8864C165.111 15.8864 164.897 15.9915 164.766 16.2017C164.638 16.4091 164.574 16.6449 164.574 16.9091ZM164.029 24L170.029 15.2727H171L165 24H164.029Z" fill="white"/>
<path d="M180.898 21.7216V17.0341H181.693V21.7216H180.898ZM178.952 19.7756V18.9801H183.639V19.7756H178.952ZM185.174 21.5085V20.7841L188.37 15.7273H188.896V16.8494H188.541L186.126 20.6705V20.7273H190.43V21.5085H185.174ZM188.597 23V21.2884V20.951V15.7273H189.436V23H188.597ZM194.133 23.0994C193.598 23.0994 193.142 22.9538 192.766 22.6626C192.389 22.3691 192.102 21.9441 191.903 21.3878C191.704 20.8291 191.604 20.1544 191.604 19.3636C191.604 18.5777 191.704 17.9065 191.903 17.3501C192.104 16.7914 192.393 16.3653 192.769 16.0717C193.148 15.7758 193.603 15.6278 194.133 15.6278C194.663 15.6278 195.116 15.7758 195.493 16.0717C195.872 16.3653 196.161 16.7914 196.359 17.3501C196.561 17.9065 196.661 18.5777 196.661 19.3636C196.661 20.1544 196.562 20.8291 196.363 21.3878C196.164 21.9441 195.876 22.3691 195.5 22.6626C195.124 22.9538 194.668 23.0994 194.133 23.0994ZM194.133 22.3182C194.663 22.3182 195.075 22.0625 195.369 21.5511C195.662 21.0398 195.809 20.3106 195.809 19.3636C195.809 18.7339 195.741 18.1977 195.607 17.755C195.474 17.3123 195.282 16.9749 195.031 16.7429C194.783 16.5109 194.483 16.3949 194.133 16.3949C193.607 16.3949 193.196 16.6541 192.901 17.1726C192.605 17.6887 192.457 18.419 192.457 19.3636C192.457 19.9934 192.523 20.5284 192.656 20.9688C192.788 21.4091 192.979 21.7441 193.227 21.9737C193.478 22.2034 193.78 22.3182 194.133 22.3182ZM201.718 21.6364V21.2528C201.718 20.9877 201.772 20.745 201.881 20.5249C201.993 20.3023 202.154 20.1248 202.364 19.9922C202.577 19.8572 202.835 19.7898 203.138 19.7898C203.446 19.7898 203.704 19.8572 203.913 19.9922C204.121 20.1248 204.278 20.3023 204.385 20.5249C204.491 20.745 204.545 20.9877 204.545 21.2528V21.6364C204.545 21.9015 204.49 22.1454 204.381 22.3679C204.275 22.5881 204.116 22.7656 203.906 22.9006C203.697 23.0331 203.442 23.0994 203.138 23.0994C202.831 23.0994 202.571 23.0331 202.361 22.9006C202.15 22.7656 201.99 22.5881 201.881 22.3679C201.772 22.1454 201.718 21.9015 201.718 21.6364ZM202.442 21.2528V21.6364C202.442 21.8565 202.495 22.0542 202.599 22.2294C202.703 22.4022 202.883 22.4886 203.138 22.4886C203.387 22.4886 203.562 22.4022 203.664 22.2294C203.768 22.0542 203.82 21.8565 203.82 21.6364V21.2528C203.82 21.0327 203.771 20.8362 203.671 20.6634C203.572 20.4882 203.394 20.4006 203.138 20.4006C202.89 20.4006 202.711 20.4882 202.602 20.6634C202.496 20.8362 202.442 21.0327 202.442 21.2528ZM198.096 17.4744V17.0909C198.096 16.8258 198.15 16.5831 198.259 16.3629C198.371 16.1404 198.531 15.9628 198.742 15.8303C198.955 15.6953 199.213 15.6278 199.516 15.6278C199.824 15.6278 200.082 15.6953 200.29 15.8303C200.499 15.9628 200.656 16.1404 200.763 16.3629C200.869 16.5831 200.923 16.8258 200.923 17.0909V17.4744C200.923 17.7396 200.868 17.9834 200.759 18.206C200.653 18.4261 200.494 18.6037 200.283 18.7386C200.075 18.8712 199.819 18.9375 199.516 18.9375C199.209 18.9375 198.949 18.8712 198.739 18.7386C198.528 18.6037 198.368 18.4261 198.259 18.206C198.15 17.9834 198.096 17.7396 198.096 17.4744ZM198.82 17.0909V17.4744C198.82 17.6946 198.872 17.8923 198.977 18.0675C199.081 18.2403 199.261 18.3267 199.516 18.3267C199.765 18.3267 199.94 18.2403 200.042 18.0675C200.146 17.8923 200.198 17.6946 200.198 17.4744V17.0909C200.198 16.8707 200.148 16.6742 200.049 16.5014C199.95 16.3262 199.772 16.2386 199.516 16.2386C199.268 16.2386 199.089 16.3262 198.98 16.5014C198.874 16.6742 198.82 16.8707 198.82 17.0909ZM198.366 23L203.366 15.7273H204.175L199.175 23H198.366Z" fill="#F0C808"/>
</g>
<defs>
<filter id="filter0_d_2420_27622" x="-4" y="0" width="226" height="102" filterUnits="userSpaceOnUse" color-interpolation-filters="sRGB">
<feFlood flood-opacity="0" result="BackgroundImageFix"/>
<feColorMatrix in="SourceAlpha" type="matrix" values="0 0 0 0 0 0 0 0 0 0 0 0 0 0 0 0 0 0 127 0" result="hardAlpha"/>
<feOffset dy="4"/>
<feGaussianBlur stdDeviation="2"/>
<feComposite in2="hardAlpha" operator="out"/>
<feColorMatrix type="matrix" values="0 0 0 0 0 0 0 0 0 0 0 0 0 0 0 0 0 0 0.25 0"/>
<feBlend mode="normal" in2="BackgroundImageFix" result="effect1_dropShadow_2420_27622"/>
<feBlend mode="normal" in="SourceGraphic" in2="effect1_dropShadow_2420_27622" result="shape"/>
</filter>
<linearGradient id="paint0_linear_2420_27622" x1="109.5" y1="80" x2="109.5" y2="32" gradientUnits="userSpaceOnUse">
<stop stop-color="white"/>
<stop offset="0.12" stop-color="#CEFFCD"/>
<stop offset="0.46" stop-color="#AEFFAC"/>
</linearGradient>
</defs>
</svg>
